<svg width="33" height="33" viewBox="0 0 33 33" fill="none" xmlns="http://www.w3.org/2000/svg">
<path d="M4.81195 10.1108V24.9809M4.81195 24.9809C5.32748 24.9492 5.96304 24.9492 6.78037 24.9492H25.8084C26.6258 24.9492 27.2613 24.9492 27.7769 24.9809M4.81195 24.9809C4.16859 25.0203 3.71215 25.1092 3.32255 25.3086C2.70523 25.6247 2.20335 26.1292 1.88883 26.7496C1.53125 27.4549 1.53125 28.3784 1.53125 30.2251V31.5441H31.0576V30.2251C31.0576 28.3784 31.0576 27.4549 30.7 26.7496C30.3855 26.1292 29.8836 25.6247 29.2663 25.3086C28.8767 25.1092 28.4202 25.0203 27.7769 24.9809M11.3734 10.1108V24.9492M21.2155 10.1108V24.9492M27.7769 10.1108V24.9809M1.53125 5.98898V10.1108H31.0576V5.98898L16.2944 1.86719L1.53125 5.98898Z" stroke="white" stroke-width="2.5" stroke-linecap="round" stroke-linejoin="round"/>
</svg>
