<svg width="32" height="40" viewBox="0 0 32 40" fill="none" xmlns="http://www.w3.org/2000/svg">
<path d="M29.8277 4.84936H27.0772V2.06395C27.0772 1.69145 26.9153 1.33803 26.6345 1.09713C26.3537 0.856397 25.9821 0.75284 25.6195 0.814163L1.58158 4.86659C0.977733 4.96846 0.535156 5.49689 0.535156 6.11638V37.827C0.535156 38.5267 1.09576 39.094 1.78726 39.094H29.8275C30.5192 39.094 31.0796 38.5267 31.0796 37.827V6.11638C31.0798 5.41665 30.5192 4.84936 29.8277 4.84936ZM3.03953 7.1898L24.573 3.55954V32.7031L3.03953 36.3315V7.1898ZM28.5756 36.5599H16.9299L26.0308 35.0263C26.6347 34.9246 27.0774 34.396 27.0774 33.7766V7.3834H28.5758L28.5756 36.5599Z" fill="white"/>
<path d="M20.0823 9.24167L7.14658 11.2689C6.46327 11.376 5.99515 12.0234 6.10083 12.7148C6.19666 13.3407 6.72972 13.7881 7.33657 13.7881C7.40018 13.7881 7.46495 13.7832 7.52973 13.773L20.4653 11.7458C21.1488 11.6387 21.6169 10.9913 21.5112 10.2997C21.4054 9.60843 20.7658 9.13456 20.0823 9.24167Z" fill="white"/>
</svg>
