<svg width="28" height="27" viewBox="0 0 28 27" fill="none" xmlns="http://www.w3.org/2000/svg">
<path fill-rule="evenodd" clip-rule="evenodd" d="M6.58167 26.509V8.98334H0.75723V26.509H6.58167ZM3.67076 6.59097C4.08865 6.62719 4.50951 6.57648 4.90683 6.44203C5.30415 6.30758 5.66933 6.09231 5.97935 5.80978C6.28938 5.52725 6.53754 5.18357 6.7082 4.80041C6.87886 4.41724 6.96832 4.00288 6.97095 3.58344C6.97358 3.16399 6.88932 2.74855 6.72348 2.36327C6.55764 1.978 6.31381 1.63124 6.00735 1.34484C5.70089 1.05844 5.33844 0.838607 4.94284 0.699188C4.54723 0.559768 4.12704 0.503782 3.70873 0.534758C3.29264 0.498729 2.87359 0.54892 2.47778 0.682193C2.08197 0.815466 1.7179 1.02896 1.40834 1.30932C1.09878 1.58968 0.850379 1.93088 0.678669 2.3116C0.50696 2.69232 0.415632 3.10436 0.410395 3.52198C0.405158 3.93959 0.486124 4.3538 0.648232 4.7387C0.81034 5.12361 1.0501 5.47093 1.35254 5.75897C1.65497 6.04701 2.01357 6.26956 2.40592 6.41271C2.79826 6.55587 3.21592 6.61656 3.63279 6.59097H3.67076ZM9.80554 26.509C9.80554 26.509 9.88149 10.628 9.80554 8.98334H15.6313V11.525H15.592C16.116 10.5936 16.887 9.82501 17.82 9.30397C18.753 8.78294 19.8118 8.52969 20.8796 8.57217C24.7123 8.57217 27.5866 11.0772 27.5866 16.4603V26.509H21.7569V17.1334C21.7569 14.7764 20.9136 13.1697 18.8054 13.1697C18.1484 13.1738 17.5087 13.3808 16.9738 13.7624C16.4389 14.144 16.035 14.6815 15.8172 15.3014C15.668 15.7595 15.6032 16.2409 15.6261 16.7222V26.509H9.80554Z" fill="white"/>
</svg>
