<svg width="31" height="38" viewBox="0 0 31 38" fill="none" xmlns="http://www.w3.org/2000/svg">
<path d="M25.4377 20.4934C25.4634 17.6209 27.001 14.9517 29.487 13.4265C27.9237 11.2149 25.3865 9.84218 22.6443 9.76591C19.7739 9.46087 16.9804 11.4691 15.5196 11.4691C14.0588 11.4691 11.7779 9.79134 9.34322 9.84218C6.13969 9.94386 3.2437 11.6979 1.68038 14.4687C-1.62565 20.1629 0.834653 28.5263 4.01255 33.1274C5.6015 35.3898 7.44673 37.9065 9.88141 37.8048C12.2648 37.7031 13.1362 36.305 16.0065 36.305C18.8769 36.305 19.6714 37.8048 22.1573 37.754C24.7201 37.7031 26.3091 35.4915 27.8468 33.2291C29 31.6276 29.8714 29.8482 30.4609 27.967C27.4111 26.696 25.4377 23.7726 25.4377 20.4934Z" fill="white"/>
<path d="M20.7493 6.7433C22.1332 5.09097 22.8252 2.95564 22.6714 0.820312C20.5443 1.0491 18.5965 2.0405 17.187 3.642C15.8031 5.21807 15.0855 7.27714 15.2392 9.36162C17.3664 9.38704 19.4166 8.42106 20.7493 6.7433Z" fill="white"/>
</svg>
