<svg width="44" height="75" viewBox="0 0 44 75" fill="none" xmlns="http://www.w3.org/2000/svg">
<g filter="url(#filter0_d_1675_7732)">
<path d="M24.198 41.1772C26.4345 41.1772 28.2475 39.3642 28.2475 37.1277C28.2475 34.8912 26.4345 33.0781 24.198 33.0781C21.9615 33.0781 20.1484 34.8912 20.1484 37.1277C20.1484 39.3642 21.9615 41.1772 24.198 41.1772Z" fill="white"/>
<path d="M24.198 28.1069C26.4345 28.1069 28.2475 26.2938 28.2475 24.0573C28.2475 21.8209 26.4345 20.0078 24.198 20.0078C21.9615 20.0078 20.1484 21.8209 20.1484 24.0573C20.1484 26.2938 21.9615 28.1069 24.198 28.1069Z" fill="white"/>
<path d="M24.198 54.2553C26.4345 54.2553 28.2475 52.4423 28.2475 50.2058C28.2475 47.9693 26.4345 46.1562 24.198 46.1562C21.9615 46.1562 20.1484 47.9693 20.1484 50.2058C20.1484 52.4423 21.9615 54.2553 24.198 54.2553Z" fill="white"/>
</g>
<defs>
<filter id="filter0_d_1675_7732" x="0.148438" y="0.0078125" width="48.1016" height="74.25" filterUnits="userSpaceOnUse" color-interpolation-filters="sRGB">
<feFlood flood-opacity="0" result="BackgroundImageFix"/>
<feColorMatrix in="SourceAlpha" type="matrix" values="0 0 0 0 0 0 0 0 0 0 0 0 0 0 0 0 0 0 127 0" result="hardAlpha"/>
<feOffset/>
<feGaussianBlur stdDeviation="10"/>
<feComposite in2="hardAlpha" operator="out"/>
<feColorMatrix type="matrix" values="0 0 0 0 0 0 0 0 0 0 0 0 0 0 0 0 0 0 0.25 0"/>
<feBlend mode="normal" in2="BackgroundImageFix" result="effect1_dropShadow_1675_7732"/>
<feBlend mode="normal" in="SourceGraphic" in2="effect1_dropShadow_1675_7732" result="shape"/>
</filter>
</defs>
</svg>
