<svg width="56" height="124" viewBox="0 0 56 124" fill="none" xmlns="http://www.w3.org/2000/svg">
<circle cx="62" cy="62" r="62" transform="matrix(-1 0 0 1 124 0)" fill="#659D41"/>
<g filter="url(#filter0_d_1297_6998)">
<path d="M36.198 66.1772C38.4345 66.1772 40.2475 64.3642 40.2475 62.1277C40.2475 59.8912 38.4345 58.0781 36.198 58.0781C33.9615 58.0781 32.1484 59.8912 32.1484 62.1277C32.1484 64.3642 33.9615 66.1772 36.198 66.1772Z" fill="white"/>
<path d="M36.198 53.1069C38.4345 53.1069 40.2475 51.2938 40.2475 49.0573C40.2475 46.8209 38.4345 45.0078 36.198 45.0078C33.9615 45.0078 32.1484 46.8209 32.1484 49.0573C32.1484 51.2938 33.9615 53.1069 36.198 53.1069Z" fill="white"/>
<path d="M36.198 79.2553C38.4345 79.2553 40.2475 77.4423 40.2475 75.2058C40.2475 72.9693 38.4345 71.1562 36.198 71.1562C33.9615 71.1562 32.1484 72.9693 32.1484 75.2058C32.1484 77.4423 33.9615 79.2553 36.198 79.2553Z" fill="white"/>
</g>
<defs>
<filter id="filter0_d_1297_6998" x="12.1484" y="25.0078" width="48.1016" height="74.25" filterUnits="userSpaceOnUse" color-interpolation-filters="sRGB">
<feFlood flood-opacity="0" result="BackgroundImageFix"/>
<feColorMatrix in="SourceAlpha" type="matrix" values="0 0 0 0 0 0 0 0 0 0 0 0 0 0 0 0 0 0 127 0" result="hardAlpha"/>
<feOffset/>
<feGaussianBlur stdDeviation="10"/>
<feComposite in2="hardAlpha" operator="out"/>
<feColorMatrix type="matrix" values="0 0 0 0 0 0 0 0 0 0 0 0 0 0 0 0 0 0 0.25 0"/>
<feBlend mode="normal" in2="BackgroundImageFix" result="effect1_dropShadow_1297_6998"/>
<feBlend mode="normal" in="SourceGraphic" in2="effect1_dropShadow_1297_6998" result="shape"/>
</filter>
</defs>
</svg>
