<svg width="77" height="77" viewBox="0 0 77 77" fill="none" xmlns="http://www.w3.org/2000/svg">
<g clip-path="url(#clip0_1297_6948)">
<path d="M46.4041 37.375H30.5942C25.6054 37.375 21.5469 41.4337 21.5469 46.4223V54.6006H55.4514V46.4223C55.4514 41.4335 51.3928 37.375 46.4041 37.375ZM24.647 46.4223C24.647 43.143 27.3148 40.4752 30.5942 40.4752H37.5626L36.6108 38.3726L31.7644 51.5006H24.647V46.4223ZM38.4992 41.0865L41.4572 51.5004H35.5413L38.4992 41.0865ZM52.3512 51.5004H45.2338L40.3874 38.3724L38.4992 40.475H46.4041C49.6834 40.475 52.3512 43.143 52.3512 46.4221V51.5004Z" fill="#9DB73B"/>
<path d="M38.4992 41.8215L37.5626 40.4752M37.5626 40.4752H30.5942C27.3148 40.4752 24.647 43.143 24.647 46.4223V51.5006H31.7644L36.6108 38.3726L37.5626 40.4752ZM46.4041 37.375H30.5942C25.6054 37.375 21.5469 41.4337 21.5469 46.4223V54.6006H55.4514V46.4223C55.4514 41.4335 51.3928 37.375 46.4041 37.375ZM38.4992 41.0865L41.4572 51.5004H35.5413L38.4992 41.0865ZM52.3512 51.5004H45.2338L40.3874 38.3724L38.4992 40.475H46.4041C49.6834 40.475 52.3512 43.143 52.3512 46.4221V51.5004Z" stroke="#9DB73B" stroke-width="0.3" stroke-linecap="round" stroke-linejoin="round"/>
<path d="M38.5034 36.6476C43.5197 36.6476 47.6005 32.5666 47.6005 27.5503C47.6005 22.534 43.5195 18.4531 38.5034 18.4531C33.4873 18.4531 29.4062 22.5342 29.4062 27.5503C29.4062 32.5666 33.4871 36.6476 38.5034 36.6476ZM38.5034 21.5533C41.8102 21.5533 44.5004 24.2436 44.5004 27.5503C44.5004 30.8571 41.81 33.5474 38.5034 33.5474C35.1967 33.5474 32.5064 30.8571 32.5064 27.5503C32.5064 24.2436 35.1965 21.5533 38.5034 21.5533Z" fill="#9DB73B" stroke="#9DB73B" stroke-width="0.3" stroke-linecap="round" stroke-linejoin="round"/>
<path d="M76.5861 47.1813V30.647H64.7263C64.246 29.1236 63.6305 27.6413 62.8877 26.2179L71.2765 17.8291L59.5852 6.13769L51.1963 14.5265C49.7729 13.7837 48.2904 13.1683 46.7672 12.6879V0.828125H30.233V12.6879C28.7097 13.1683 27.2272 13.7837 25.8038 14.5265L17.415 6.13748L5.72342 17.8291L14.1123 26.2179C13.3695 27.6411 12.754 29.1236 12.2737 30.647H0.414062V47.1813H12.2739C12.7542 48.7045 13.3697 50.187 14.1125 51.6104L5.72362 59.9992L17.415 71.6906L25.8038 63.3017C27.2272 64.0445 28.7097 64.66 30.233 65.1404V77.0002H46.7672V65.1404C48.2904 64.66 49.7729 64.0445 51.1963 63.3017L59.5852 71.6906L71.2765 59.9992L62.8877 51.6104C63.6305 50.187 64.246 48.7045 64.7263 47.1813H76.5861ZM66.8923 59.9992L59.5852 67.3063L51.7238 59.4449L50.6933 60.0412C48.842 61.112 46.865 61.9327 44.8166 62.4802L43.6668 62.7875V73.9H33.3329V62.7875L32.1832 62.4802C30.135 61.9327 28.1577 61.112 26.3065 60.0412L25.276 59.4449L17.4146 67.3063L10.1075 59.9992L17.9689 52.1378L17.3726 51.1073C16.3018 49.2561 15.4811 47.279 14.9336 45.2306L14.6263 44.0809H3.51423V33.747H14.6267L14.934 32.5972C15.4815 30.5488 16.3022 28.5718 17.373 26.7208L17.9693 25.6903L10.1077 17.8291L17.4148 10.5219L25.2762 18.3834L26.3067 17.7871C28.1579 16.7163 30.135 15.8956 32.1834 15.3481L33.3331 15.0408V3.9283H43.667V15.0408L44.8168 15.3481C46.865 15.8956 48.8423 16.7163 50.6935 17.7871L51.724 18.3834L59.5854 10.5219L66.8925 17.8291L59.0311 25.6905L59.6273 26.721C60.6981 28.572 61.5186 30.5491 62.0663 32.5974L62.3737 33.7472H73.4861V44.0811H62.3737L62.0663 45.2308C61.5189 47.279 60.6981 49.2563 59.6273 51.1075L59.0311 52.138L66.8923 59.9992Z" fill="#9DB73B" stroke="#9DB73B" stroke-width="0.3" stroke-linecap="round" stroke-linejoin="round"/>
</g>
<defs>
<clipPath id="clip0_1297_6948">
<rect width="77" height="77" fill="white"/>
</clipPath>
</defs>
</svg>
