<svg width="17" height="26" viewBox="0 0 17 26" fill="none" xmlns="http://www.w3.org/2000/svg">
<path fill-rule="evenodd" clip-rule="evenodd" d="M14.6486 10.7147L14.2558 13.6093H9.53827V23.7403H6.67135V13.6093H2.37096V10.7147H6.67135V8.06179C6.67135 4.38133 8.91041 2.00197 12.3779 2.00197C13.863 2.00197 14.789 2.08158 15.3237 2.15394L15.2821 4.89512L13.0775 4.89946C13.0173 4.89367 11.581 4.78078 10.5446 5.74179C9.87657 6.35978 9.53827 7.24841 9.53827 8.3802V10.7147H14.6486V10.7147ZM11.5064 6.81423C12.0712 6.28307 12.9513 6.34096 13.0158 6.34386L16.6941 6.34241L16.7729 0.985982L16.2196 0.848486C15.8641 0.760218 14.7761 0.554688 12.3779 0.554688C8.10767 0.554688 5.23788 3.5723 5.23788 8.06179V9.26739H0.9375V15.0566H5.23788V25.1876H10.9717V15.0565H15.5043L16.2913 9.26739H10.9717V8.38019C10.9717 7.67537 11.1523 7.14855 11.5064 6.81423Z" fill="white"/>
</svg>
