<svg width="81" height="80" viewBox="0 0 81 80" fill="none" xmlns="http://www.w3.org/2000/svg">
<path d="M59.3046 49.0535C59.3051 51.6365 58.7904 54.1935 57.7907 56.5752C56.7911 58.9568 55.3264 61.1151 53.4825 62.9238C51.6386 64.7326 49.4525 66.1554 47.0521 67.109C44.6516 68.0627 42.0851 68.528 39.5027 68.4778C34.3341 68.273 29.4492 66.0604 25.8864 62.3105C22.3235 58.5606 20.3636 53.569 20.4232 48.3967V21.3374C20.4224 21.299 20.4351 21.2615 20.4591 21.2315C20.4831 21.2015 20.5169 21.1809 20.5546 21.1732C27.122 20.1829 33.7485 19.6343 40.3893 19.5312C46.7525 19.6316 53.1007 20.1803 59.3867 21.1732C59.423 21.1811 59.455 21.2024 59.4763 21.2328C59.4976 21.2633 59.5066 21.3006 59.5016 21.3374L59.3046 49.0535Z" stroke="#9DB73B" stroke-width="4" stroke-linejoin="round"/>
<path d="M20.4294 30.143L2.97544 21.0631C2.94768 21.0496 2.92426 21.0286 2.90788 21.0025C2.8915 20.9763 2.88281 20.9461 2.88281 20.9153C2.88281 20.8844 2.8915 20.8542 2.90788 20.8281C2.92426 20.8019 2.94768 20.781 2.97544 20.7675L39.9029 2H40.0507L76.8632 20.5705C76.891 20.5839 76.9144 20.6049 76.9308 20.631C76.9472 20.6572 76.9559 20.6874 76.9559 20.7182C76.9559 20.7491 76.9472 20.7793 76.9308 20.8054C76.9144 20.8316 76.891 20.8526 76.8632 20.866L59.5078 30.143" stroke="#9DB73B" stroke-width="4" stroke-linejoin="round"/>
<path d="M20.426 40.3125H17.257C17.257 40.3125 12.4297 40.3125 12.4297 47.7341C12.4297 54.5811 17.2406 54.5811 17.2406 54.5811L21.3619 54.499" stroke="#9DB73B" stroke-width="4" stroke-linejoin="round"/>
<path d="M59.286 41.1406H62.455C62.455 41.1406 67.3808 41.1406 67.3808 48.5787C67.3808 55.4256 62.5535 55.4256 62.5535 55.4256H58.2188" stroke="#9DB73B" stroke-width="4" stroke-linejoin="round"/>
<path d="M74.7656 61.4076V21.9844" stroke="#9DB73B" stroke-width="4" stroke-linejoin="round"/>
<path d="M74.7617 69.0077C76.8564 69.0077 78.5546 67.3095 78.5546 65.2148C78.5546 63.12 76.8564 61.4219 74.7617 61.4219C72.6669 61.4219 70.9688 63.12 70.9688 65.2148C70.9688 67.3095 72.6669 69.0077 74.7617 69.0077Z" stroke="#9DB73B" stroke-width="4" stroke-linejoin="round"/>
<path d="M50.2087 65.4844V77.996H30.7188V66.174" stroke="#9DB73B" stroke-width="4" stroke-linejoin="round"/>
<path d="M59.5003 36.927C53.2103 35.7919 46.8287 35.2423 40.4373 35.2851C33.727 35.152 27.0207 35.7022 20.4219 36.927" stroke="#9DB73B" stroke-width="4" stroke-linejoin="round"/>
</svg>
