<svg width="40" height="40" viewBox="0 0 40 40" fill="none" xmlns="http://www.w3.org/2000/svg">
<rect width="40" height="39.7436" rx="19.8718" fill="#1D4154"/>
<path opacity="0.8" d="M23 18.8806H31M27 14.9062V22.855" stroke="white" stroke-width="1.6" stroke-linecap="round" stroke-linejoin="round"/>
<mask id="path-3-outside-1_982_22323" maskUnits="userSpaceOnUse" x="6" y="9.95312" width="19" height="18" fill="black">
<rect fill="white" x="6" y="9.95312" width="19" height="18"/>
<path d="M14.886 11.3771H16.8L23.466 26.9531H21.002L19.44 23.1031H12.026L10.486 26.9531H8.022L14.886 11.3771ZM18.67 21.2551L15.766 14.1051H15.722L12.774 21.2551H18.67Z"/>
</mask>
<path d="M14.886 11.3771H16.8L23.466 26.9531H21.002L19.44 23.1031H12.026L10.486 26.9531H8.022L14.886 11.3771ZM18.67 21.2551L15.766 14.1051H15.722L12.774 21.2551H18.67Z" fill="white"/>
<path d="M14.886 11.3771V10.3771H14.2339L13.9709 10.9739L14.886 11.3771ZM16.8 11.3771L17.7193 10.9837L17.4598 10.3771H16.8V11.3771ZM23.466 26.9531V27.9531H24.9817L24.3853 26.5597L23.466 26.9531ZM21.002 26.9531L20.0754 27.3291L20.3285 27.9531H21.002V26.9531ZM19.44 23.1031L20.3666 22.7272L20.1135 22.1031H19.44V23.1031ZM12.026 23.1031V22.1031H11.349L11.0975 22.7317L12.026 23.1031ZM10.486 26.9531V27.9531H11.163L11.4145 27.3245L10.486 26.9531ZM8.022 26.9531L7.10691 26.5499L6.48853 27.9531H8.022V26.9531ZM18.67 21.2551V22.2551H20.1555L19.5965 20.8788L18.67 21.2551ZM15.766 14.1051L16.6925 13.7288L16.4392 13.1051H15.766V14.1051ZM15.722 14.1051V13.1051H15.0526L14.7975 13.7239L15.722 14.1051ZM12.774 21.2551L11.8495 20.8739L11.28 22.2551H12.774V21.2551ZM14.886 12.3771H16.8V10.3771H14.886V12.3771ZM15.8807 11.7706L22.5467 27.3466L24.3853 26.5597L17.7193 10.9837L15.8807 11.7706ZM23.466 25.9531H21.002V27.9531H23.466V25.9531ZM21.9286 26.5772L20.3666 22.7272L18.5134 23.4791L20.0754 27.3291L21.9286 26.5772ZM19.44 22.1031H12.026V24.1031H19.44V22.1031ZM11.0975 22.7317L9.55752 26.5817L11.4145 27.3245L12.9545 23.4745L11.0975 22.7317ZM10.486 25.9531H8.022V27.9531H10.486V25.9531ZM8.93709 27.3564L15.8011 11.7804L13.9709 10.9739L7.10691 26.5499L8.93709 27.3564ZM19.5965 20.8788L16.6925 13.7288L14.8395 14.4814L17.7435 21.6314L19.5965 20.8788ZM15.766 13.1051H15.722V15.1051H15.766V13.1051ZM14.7975 13.7239L11.8495 20.8739L13.6985 21.6363L16.6465 14.4863L14.7975 13.7239ZM12.774 22.2551H18.67V20.2551H12.774V22.2551Z" fill="#1D4154" mask="url(#path-3-outside-1_982_22323)"/>
</svg>
