<svg width="21" height="26" viewBox="0 0 21 26" fill="none" xmlns="http://www.w3.org/2000/svg">
<path d="M10.0383 5.61566C9.50382 5.61566 8.98135 5.45717 8.53695 5.16023C8.09255 4.86329 7.74618 4.44124 7.54164 3.94745C7.33711 3.45365 7.28359 2.9103 7.38786 2.38609C7.49213 1.86189 7.74951 1.38037 8.12744 1.00244C8.50537 0.62451 8.98689 0.367135 9.51109 0.262864C10.0353 0.158593 10.5787 0.212108 11.0724 0.416644C11.5662 0.621179 11.9883 0.967547 12.2852 1.41195C12.5822 1.85635 12.7407 2.37882 12.7407 2.9133C12.7399 3.62977 12.4549 4.31668 11.9483 4.82331C11.4417 5.32993 10.7548 5.61489 10.0383 5.61566Z" fill="white"/>
<path d="M18.53 6.53072L18.5083 6.53652L18.488 6.54279C18.4397 6.5563 18.3915 6.57078 18.3432 6.58574C17.4452 6.84922 13.0867 8.07782 10.0161 8.07782C7.1627 8.07782 3.19844 7.01618 1.93026 6.65571C1.80404 6.60691 1.67515 6.56534 1.54421 6.53121C0.627334 6.28992 0 7.22127 0 8.07252C0 8.91556 0.757626 9.31705 1.52249 9.60514V9.61865L6.11747 11.0538C6.587 11.2338 6.71247 11.4177 6.77375 11.5769C6.97305 12.0879 6.8138 13.0999 6.75734 13.4531L6.47746 15.6246L4.92408 24.1269C4.91926 24.1501 4.91492 24.1737 4.91106 24.1979L4.89996 24.2592C4.788 25.0385 5.36032 25.7947 6.44416 25.7947C7.38999 25.7947 7.8074 25.1418 7.98837 24.2534C7.98837 24.2534 9.33955 16.6496 10.0151 16.6496C10.6907 16.6496 12.0824 24.2534 12.0824 24.2534C12.2634 25.1418 12.6808 25.7947 13.6266 25.7947C14.7134 25.7947 15.2857 25.0351 15.1708 24.2534C15.1607 24.1868 15.1487 24.1212 15.1342 24.0575L13.5596 15.6256L13.2802 13.4541C13.078 12.1893 13.2406 11.7714 13.2956 11.6734C13.2971 11.6711 13.2984 11.6687 13.2995 11.6662C13.3516 11.5697 13.589 11.3535 14.143 11.1455L18.4513 9.6394C18.4778 9.63236 18.5039 9.62398 18.5295 9.61431C19.3016 9.32477 20.0737 8.92424 20.0737 8.07348C20.0737 7.22272 19.4468 6.28993 18.53 6.53072Z" fill="white"/>
</svg>
