<svg width="40" height="41" viewBox="0 0 40 41" fill="none" xmlns="http://www.w3.org/2000/svg">
<rect y="0.1875" width="40" height="40" rx="20" fill="#1D4154"/>
<path d="M28 14C29.5 15.5 30 18 30 20C30 22 29.5 24.5 28 26M25 17C25.5 17.5 26 18.5 26 20C26 21.5 25.5 22.5 25 23M11 18.5V21.5C11 22.6046 11.5 23.5 13.5 24C15.5 24.5 17 29 20 29C22 29 22 11 20 11C17 11 15.5 15.5 13.5 16C11.5 16.5 11 17.3954 11 18.5Z" stroke="white" stroke-width="1.6" stroke-linecap="round" stroke-linejoin="round"/>
</svg>
