<svg width="40" height="41" viewBox="0 0 40 41" fill="none" xmlns="http://www.w3.org/2000/svg">
<rect y="0.164062" width="40" height="40.396" rx="20" fill="#1D4154"/>
<path fill-rule="evenodd" clip-rule="evenodd" d="M20 10.3125C23.3138 10.3125 26.0001 13.0254 26.0001 16.3719C26.0001 17.1595 25.8509 17.9128 25.5796 18.6039C28.127 19.3042 30 21.6567 30 24.4511C30 27.7976 27.3137 30.5105 24 30.5105C22.463 30.5105 21.0609 29.9262 20 28.9676C18.9385 29.9271 17.5367 30.5105 16 30.5105C12.6863 30.5105 10 27.7976 10 24.4511C10 21.6568 11.8729 19.3043 14.4202 18.604C14.1491 17.9132 14 17.1601 14 16.3719C14 13.0254 16.6863 10.3125 20 10.3125ZM24 20.4115C22.9355 20.4115 21.9682 20.8307 21.2507 21.5168C21.7281 22.3866 22.0001 23.3876 22.0001 24.4511C22.0001 25.5157 21.7283 26.5162 21.2508 27.3856C21.9684 28.0716 22.9356 28.4907 24 28.4907C26.2091 28.4907 28 26.6821 28 24.4511C28 22.2201 26.2091 20.4115 24 20.4115ZM15.5503 20.4368C13.5529 20.6625 12 22.3736 12 24.4511C12 26.6821 13.7909 28.4907 16 28.4907C18.2091 28.4907 20 26.6821 20 24.4511C20 23.7038 19.7999 23.0057 19.4506 22.4063C17.9074 22.2648 16.533 21.5332 15.5503 20.4368ZM20 12.3323C17.7909 12.3323 16 14.1409 16 16.3719C16 18.4494 17.5529 20.1606 19.5502 20.3863C20.532 19.291 21.9069 18.5584 23.4507 18.4168C23.8 17.8173 24.0001 17.1192 24.0001 16.3719C24.0001 14.1409 22.2092 12.3323 20 12.3323Z" fill="white" stroke="#1D4154" stroke-width="0.5"/>
</svg>
