<svg width="34" height="34" viewBox="0 0 34 34" fill="none" xmlns="http://www.w3.org/2000/svg">
<path fill-rule="evenodd" clip-rule="evenodd" d="M17 2C14.0333 2 11.1332 2.87973 8.66645 4.52796C6.19972 6.17618 4.27713 8.51886 3.14181 11.2597C2.0065 14.0006 1.70945 17.0166 2.28823 19.9264C2.86701 22.8361 4.29562 25.5088 6.3934 27.6066C8.49119 29.7044 11.1639 31.133 14.0737 31.7118C16.9834 32.2906 19.9994 31.9935 22.7403 30.8582C25.4811 29.7229 27.8238 27.8003 29.472 25.3335C31.1203 22.8668 32 19.9667 32 17H17V2Z" stroke="#659D41" stroke-width="2.4" stroke-linecap="round" stroke-linejoin="round"/>
<path fill-rule="evenodd" clip-rule="evenodd" d="M21.5 12.4975H31.31C30.5855 10.1933 29.3153 8.09816 27.6073 6.3902C25.8993 4.68225 23.8042 3.41201 21.5 2.6875V12.4975Z" stroke="#659D41" stroke-width="2" stroke-linecap="round" stroke-linejoin="round"/>
</svg>
