<svg width="78" height="78" viewBox="0 0 78 78" fill="none" xmlns="http://www.w3.org/2000/svg">
<path d="M76.2642 68.0966H72.9938V63.2471C72.9938 62.3698 72.2758 61.652 71.3985 61.652H66.4212V24.3554H76.2483C76.9662 24.3554 77.6043 23.8608 77.7957 23.1589C77.9872 22.457 77.6681 21.7231 77.046 21.3563L39.716 0.203424C39.2214 -0.067808 38.6313 -0.067808 38.1367 0.203424L0.806533 21.3562C0.16834 21.7072 -0.134642 22.4569 0.0568158 23.1587C0.248274 23.8606 0.870352 24.3552 1.60427 24.3552H11.4313V61.6518H6.4539C5.57655 61.6518 4.85858 62.3696 4.85858 63.247V68.0965H1.60427C0.726918 68.0965 0.0089513 68.8143 0.0089513 69.6916V76.264C0.0089513 77.1414 0.726759 77.8594 1.60427 77.8594H76.2642C77.1416 77.8594 77.8595 77.1416 77.8595 76.264V69.6916C77.8595 68.8146 77.1417 68.0966 76.2642 68.0966ZM7.65051 21.1649L38.9344 3.44177L70.2181 21.1649H7.65051ZM63.2467 24.3554V61.652H56.706V24.3554H63.2467ZM53.5154 24.3554V61.652H45.3953V24.3554H53.5154ZM42.2047 24.3554V61.652H35.6638V24.3554H42.2047ZM32.4733 24.3554V61.652H24.3533V24.3554H32.4733ZM21.1627 24.3554V61.652H14.622V24.3554H21.1627ZM8.06518 64.8425H69.8033V68.0968H8.06518V64.8425ZM74.6689 74.669H3.1996V71.2871H71.3986H74.6691L74.6689 74.669Z" fill="#9DB73B"/>
<path d="M50.9055 15.0373L50.9064 15.0379C51.4293 15.3327 51.6991 15.9659 51.5379 16.5569L51.5369 16.5607C51.39 17.1349 50.8525 17.5532 50.2476 17.5532H27.6262C27.0226 17.5532 26.4818 17.1355 26.3197 16.5562C26.1599 15.969 26.4253 15.349 26.9539 15.0363L38.2611 8.59356C38.6799 8.36465 39.1778 8.36465 39.5966 8.59356L50.9055 15.0373ZM33.5328 14.3954L32.712 14.8627H33.6565H44.2333H45.1753L44.3572 14.3956L39.0768 11.3806L38.953 11.3099L38.8292 11.3804L33.5328 14.3954Z" fill="#9DB73B" stroke="#1D4154" stroke-width="0.5"/>
</svg>
