<svg width="98" height="74" viewBox="0 0 98 74" fill="none" xmlns="http://www.w3.org/2000/svg">
<path d="M26.6354 31.3713C21.1684 31.3713 16.7203 26.9181 16.7203 21.4442C16.7203 15.9704 21.1687 11.5172 26.6354 11.5172C32.1023 11.5172 36.5504 15.9706 36.5504 21.4442C36.5504 26.9181 32.1023 31.3713 26.6354 31.3713ZM26.6354 15.2409C23.2186 15.2409 20.4395 18.0236 20.4395 21.444C20.4395 24.8644 23.2186 27.6471 26.6354 27.6471C30.0521 27.6471 32.8312 24.8644 32.8312 21.444C32.8312 18.0236 30.0521 15.2409 26.6354 15.2409Z" fill="#9DB73B" stroke="#123242" stroke-width="0.3"/>
<path d="M12.1678 58.5615H12.0179H8.66321H8.5132L8.51321 58.4114L8.51683 4.02394L8.51684 3.87395H8.66683H89.3437H89.4937L89.4937 4.02396L89.4901 58.4115L89.4901 58.5615H89.3401H40.6356H40.4856L40.4856 58.4114L40.4892 49.3591L40.4894 49.0264L40.7386 49.2467L48.5042 56.1137C49.1352 56.6058 49.6752 56.5865 49.7719 56.583L49.7729 56.583L49.7756 56.5829C50.2802 56.574 50.7594 56.3602 51.103 55.9904L51.103 55.9904L67.1517 38.7244L67.1523 38.7239C68.0435 37.7749 68.5016 36.5411 68.444 35.2482C68.3967 34.1907 68.002 33.2023 67.3257 32.3955L67.2405 32.294L67.3308 32.197L79.1102 19.5414C79.8102 18.7891 79.7688 17.6108 79.0174 16.9094C78.2663 16.2087 77.0896 16.2506 76.3891 17.0023C76.3891 17.0023 76.389 17.0023 76.389 17.0023L64.6226 29.6442L64.5314 29.7421L64.4237 29.6627C63.6166 29.0672 62.637 28.7468 61.6095 28.7696L61.6086 28.7697C60.3199 28.7907 59.0722 29.3446 58.1913 30.2835L12.1678 58.5615ZM12.1678 58.5615L12.1679 58.4115L12.1715 38.3963C12.1715 34.8863 15.0238 32.0309 18.5285 32.0307H38.3907C39.8125 32.0307 41.2004 32.5122 42.316 33.3893L42.3159 33.3895L42.318 33.3909C42.3181 33.3911 42.3183 33.3912 42.3185 33.3914L42.3347 33.4058C42.3417 33.4122 42.3502 33.4199 42.3601 33.4289C42.3707 33.4385 42.3829 33.4497 42.3968 33.4624C42.4502 33.5115 42.5265 33.5821 42.6226 33.6713C42.8147 33.8495 43.0849 34.1013 43.4072 34.402C44.0518 35.0034 44.904 35.8003 45.7539 36.5956C46.6038 37.3909 47.4513 38.1845 48.0863 38.7793L48.8532 39.4977L49.0679 39.6989L49.1244 39.7519L49.1389 39.7655L49.1426 39.7689L49.1435 39.7698L49.1438 39.77C49.1438 39.77 49.1438 39.77 49.2464 39.6606L49.1438 39.77L49.2536 39.8729L49.3561 39.7629L58.191 30.2839L12.1678 58.5615ZM62.7637 37.9877L62.6535 37.8843L59.3061 34.7427L59.1964 34.6397L59.2997 34.5303L60.8974 32.8385L62.7637 37.9877ZM62.7637 37.9877L62.8663 37.8768M62.7637 37.9877L62.8663 37.8768M62.8663 37.8768L64.4324 36.1839C64.6375 35.9656 64.7412 35.6964 64.7286 35.4142C64.7194 35.2095 64.6442 34.9138 64.353 34.6538C64.3385 34.6405 64.3271 34.6302 64.3147 34.6185L64.2119 34.7278L64.3147 34.6185L62.3611 32.7809L62.3593 32.7792C62.3471 32.7682 62.335 32.7563 62.3207 32.7422M62.8663 37.8768L61.6698 32.4931M61.6698 32.4931L61.6727 32.4931C61.8064 32.4937 62.0943 32.5163 62.3207 32.7422M61.6698 32.4931C61.4999 32.4956 61.1733 32.5447 60.8977 32.8381L61.6698 32.4931ZM62.3207 32.7422C62.3209 32.7424 62.321 32.7426 62.3212 32.7428L62.2152 32.8489L62.3203 32.7418C62.3204 32.742 62.3205 32.7421 62.3207 32.7422ZM93.209 58.4114L93.209 58.5615H93.359H95.9859C97.013 58.5615 97.8455 59.3947 97.8455 60.4234L97.8491 68.5475C97.8491 69.5763 97.0166 70.4095 95.9895 70.4095H40.6393H40.4893L40.4893 70.5595L40.4892 71.6043C40.4892 72.6331 39.6567 73.4663 38.6297 73.4663H14.0311C13.004 73.4663 12.1715 72.6331 12.1715 71.6043L12.1715 70.5595L12.1715 70.4095H12.0215H2.02101C0.99393 70.4095 0.161431 69.5763 0.161431 68.5475L0.157813 60.4234C0.157813 60.4234 0.157812 60.4234 0.157812 60.4234C0.15785 59.3949 0.990347 58.5615 2.01739 58.5615H4.64405H4.79404L4.79405 58.4115L4.79767 2.01198V2.01198C4.79767 0.983247 5.63042 0.15 6.65725 0.15H91.353C92.3798 0.15 93.2126 0.983247 93.2126 2.01197L93.209 58.4114ZM12.0215 66.6856H12.1716L12.1715 66.5354L12.1679 62.4353L12.1677 62.2854H12.0179H4.02697H3.87684L3.87697 62.4355L3.88059 66.5357L3.88072 66.6856H4.03059H12.0215ZM39.8606 43.5018L39.8606 43.5018L49.505 52.0304L49.6146 52.1273L49.7142 52.0203L60.1308 40.8256L60.2325 40.7163L60.1236 40.6141L56.7644 37.4614L56.6543 37.3581L56.5517 37.4689L50.7102 43.7785C50.374 44.1417 49.9066 44.3561 49.4122 44.3732L49.4112 44.3733C48.9173 44.3936 48.4364 44.2106 48.075 43.8711L48.075 43.8711L40.0771 36.3653L40.0772 36.3653L40.0741 36.3625L40.0716 36.3604L40.0717 36.3603L40.0675 36.3568C39.7354 36.0828 39.1739 35.7549 38.3909 35.7549H18.5285C17.0736 35.7549 15.8906 36.9398 15.8906 38.3963L15.8906 70.6926V70.8426H16.0406H36.6201H36.7701V70.6926L36.7701 44.8974C36.7701 44.1652 37.1988 43.5011 37.8653 43.2C38.5318 42.8993 39.3127 43.0168 39.8606 43.5018ZM93.9799 66.6856H94.1301L94.1299 66.5354L94.1263 62.4353L94.1262 62.2854H93.9763H40.6356H40.4855L40.4856 62.4355L40.4893 66.5357L40.4894 66.6856H40.6393H93.9799Z" fill="#9DB73B" stroke="#123242" stroke-width="0.3"/>
</svg>
