<svg width="23" height="23" viewBox="0 0 23 23" fill="none" xmlns="http://www.w3.org/2000/svg">
<path fill-rule="evenodd" clip-rule="evenodd" d="M7.00946 0.572463C5.2193 0.653235 3.66769 1.09091 2.4148 2.33851C1.15753 3.59267 0.725294 5.15043 0.644321 6.92197C0.593986 8.02768 0.299655 16.3811 1.15315 18.5718C1.72872 20.0497 2.86231 21.186 4.35375 21.7634C5.04967 22.0341 5.84411 22.2174 7.00946 22.2708C16.7536 22.7118 20.3656 22.4717 21.8888 18.5718C22.159 17.8775 22.3451 17.0838 22.3965 15.9213C22.8418 6.15224 22.3243 4.03473 20.6261 2.33851C19.2791 0.994849 17.6946 0.0801894 7.00946 0.572463ZM7.09917 20.3061C6.03229 20.2581 5.45345 20.0803 5.06719 19.9308C4.09552 19.5531 3.36567 18.8263 2.99035 17.8603C2.34038 16.1957 2.55595 8.28983 2.61394 7.01056C2.67084 5.75749 2.9247 4.61228 3.80884 3.72815C4.90306 2.63663 6.31679 2.10168 15.9427 2.53611C17.1989 2.59287 18.3468 2.8462 19.2331 3.72815C20.3273 4.81967 20.8701 6.24428 20.428 15.8333C20.3798 16.8975 20.2015 17.475 20.0516 17.8603C19.0613 20.3981 16.7831 20.7504 7.09917 20.3061ZM16.0489 5.59461C16.0489 6.3172 16.6365 6.90478 17.362 6.90478C18.0874 6.90478 18.6761 6.3172 18.6761 5.59461C18.6761 4.87203 18.0874 4.28498 17.362 4.28498C16.6365 4.28498 16.0489 4.87203 16.0489 5.59461ZM5.90209 11.4211C5.90209 14.5167 8.41773 17.0264 11.521 17.0264C14.6242 17.0264 17.1398 14.5167 17.1398 11.4211C17.1398 8.32557 14.6242 5.81745 11.521 5.81745C8.41773 5.81745 5.90209 8.32557 5.90209 11.4211ZM7.87389 11.4211C7.87389 9.41273 9.50649 7.78324 11.521 7.78324C13.5354 7.78324 15.168 9.41273 15.168 11.4211C15.168 13.4306 13.5354 15.0606 11.521 15.0606C9.50649 15.0606 7.87389 13.4306 7.87389 11.4211Z" fill="white"/>
</svg>
