<svg width="28" height="29" viewBox="0 0 28 29" fill="none" xmlns="http://www.w3.org/2000/svg">
<path fill-rule="evenodd" clip-rule="evenodd" d="M14 22.1563C15.5105 22.1563 16.987 21.7083 18.2429 20.8691C19.4988 20.03 20.4776 18.8372 21.0555 17.4417C21.6335 16.0462 21.7847 14.5106 21.4899 13.0292C21.1951 11.5478 20.4677 10.1871 19.3995 9.1191C18.3314 8.05113 16.9705 7.32391 15.489 7.02939C14.0076 6.73488 12.4721 6.8863 11.0766 7.4645C9.68124 8.04271 8.48864 9.02173 7.64966 10.2778C6.81069 11.5338 6.36302 13.0104 6.36328 14.5208C6.36363 16.546 7.16836 18.4881 8.60049 19.92C10.0326 21.3519 11.9748 22.1563 14 22.1563ZM14 19.6107C15.0069 19.6107 15.9913 19.3121 16.8285 18.7527C17.6657 18.1932 18.3183 17.3981 18.7036 16.4678C19.0889 15.5375 19.1898 14.5139 18.9933 13.5263C18.7969 12.5387 18.312 11.6316 17.6 10.9196C16.888 10.2075 15.9808 9.72266 14.9932 9.52621C14.0057 9.32977 12.982 9.43059 12.0517 9.81593C11.1214 10.2013 10.3263 10.8538 9.76687 11.691C9.20745 12.5283 8.90885 13.5126 8.90885 14.5195C8.90885 15.8698 9.44524 17.1647 10.4 18.1195C11.3548 19.0743 12.6497 19.6107 14 19.6107Z" fill="white"/>
<path d="M21.6361 5.61719C21.3843 5.61719 21.1383 5.69184 20.9289 5.83169C20.7196 5.97155 20.5565 6.17033 20.4602 6.4029C20.3638 6.63547 20.3386 6.89139 20.3877 7.13828C20.4368 7.38518 20.5581 7.61197 20.7361 7.78997C20.9141 7.96797 21.1409 8.08919 21.3878 8.13831C21.6347 8.18742 21.8906 8.16221 22.1231 8.06588C22.3557 7.96954 22.5545 7.80641 22.6944 7.5971C22.8342 7.38779 22.9089 7.14171 22.9089 6.88997C22.9089 6.72283 22.8759 6.55732 22.812 6.4029C22.748 6.24848 22.6543 6.10817 22.5361 5.98998C22.4179 5.87179 22.2776 5.77804 22.1231 5.71407C21.9687 5.65011 21.8032 5.61719 21.6361 5.61719Z" fill="white"/>
<path fill-rule="evenodd" clip-rule="evenodd" d="M0.832811 4.69273C7.80494e-08 6.32693 0 8.46526 0 12.7419V16.3049C0 20.5816 7.80494e-08 22.7213 0.832811 24.3528C1.56493 25.7901 2.73339 26.9585 4.1706 27.6906C5.80349 28.5234 7.94182 28.5234 12.2198 28.5234H15.7828C20.0595 28.5234 22.1991 28.5234 23.8307 27.6906C25.267 26.959 26.435 25.7915 27.1672 24.3555C28 22.7226 28 20.5842 28 16.3076V12.7419C28 8.46526 28 6.32562 27.1672 4.69273C26.4355 3.2564 25.2681 2.08848 23.832 1.35625C22.1965 0.523438 20.0582 0.523438 15.7815 0.523438H12.2185C7.94182 0.523438 5.80218 0.523438 4.16929 1.35625C2.73282 2.08833 1.56489 3.25625 0.832811 4.69273ZM15.7828 3.06901H12.2185C10.0383 3.06901 8.55203 3.06901 7.41019 3.1646C6.69195 3.18018 5.98373 3.33633 5.32554 3.62422C4.36697 4.11243 3.58768 4.89172 3.09947 5.85029C2.81158 6.50848 2.65544 7.2167 2.63985 7.93493C2.54688 9.0807 2.54426 10.563 2.54426 12.7432V16.3063C2.54426 18.4865 2.54426 19.9727 2.63985 21.1146C2.65544 21.8328 2.81158 22.541 3.09947 23.1992C3.58768 24.1578 4.36697 24.9371 5.32554 25.4253C5.98367 25.7134 6.69193 25.8695 7.41019 25.8849C8.55596 25.9779 10.0383 25.9805 12.2185 25.9805H15.7815C17.9617 25.9805 19.448 25.9805 20.5898 25.8849C21.3081 25.8695 22.0163 25.7134 22.6745 25.4253C23.633 24.9371 24.4123 24.1578 24.9005 23.1992C25.1886 22.5411 25.3448 21.8328 25.3601 21.1146C25.4531 19.9688 25.4557 18.4865 25.4557 16.3063V12.7419C25.4557 10.5617 25.4557 9.07547 25.3601 7.93362C25.3448 7.21537 25.1886 6.50711 24.9005 5.84898C24.4123 4.89041 23.633 4.11112 22.6745 3.62291C22.0163 3.33502 21.308 3.17887 20.5898 3.16329C19.444 3.07032 17.9617 3.06901 15.7815 3.06901H15.7828Z" fill="white"/>
</svg>
