<svg width="24" height="24" viewBox="0 0 24 24" fill="none" xmlns="http://www.w3.org/2000/svg">
<path fill-rule="evenodd" clip-rule="evenodd" d="M14.1287 7.71837V8.61132C14.9918 8.07612 15.9882 7.76417 17.5023 7.76417C22.4301 7.76417 23.0609 11.4405 23.0609 14.6431V23.378L17.3632 23.4281V15.0738C17.3632 13.6714 16.86 13.4052 15.9295 13.4052C15.0448 13.4052 14.4957 13.6843 14.4957 15.0738V23.4281L8.72345 23.378V7.71836L14.1287 7.71837ZM5.92248 7.70893V23.4215H0.1875V7.70894H5.92248V7.70893ZM4.48874 9.13995H1.62125V21.9905H4.48874V9.13996V9.13995ZM12.6949 9.14939H10.1572V21.9599L13.062 21.9856V15.0738C13.062 12.3763 14.8585 11.9742 15.9295 11.9742C17.237 11.9742 18.797 12.5123 18.797 15.0738V21.9856L21.6272 21.9599V14.6431C21.6272 10.672 20.5103 9.19518 17.5023 9.19518C15.6943 9.19518 14.9115 9.73038 14.1444 10.3744L13.9452 10.5432H12.6949V9.14939ZM3.05499 0.554688C4.63642 0.554688 5.92248 1.83832 5.92248 3.41672C5.92248 4.99514 4.63642 6.27876 3.05499 6.27876C1.47357 6.27876 0.1875 4.99514 0.1875 3.41672C0.1875 1.83832 1.47357 0.554688 3.05499 0.554688ZM3.05499 1.98571C2.265 1.98571 1.62125 2.62823 1.62125 3.41672C1.62125 4.20521 2.265 4.84774 3.05499 4.84774C3.84498 4.84774 4.48874 4.20521 4.48874 3.41672C4.48874 2.62823 3.84498 1.98571 3.05499 1.98571Z" fill="white"/>
</svg>
