<svg width="304" height="79" viewBox="0 0 304 79" fill="none" xmlns="http://www.w3.org/2000/svg">
<path fill-rule="evenodd" clip-rule="evenodd" d="M294.385 78.4473C288.455 78.3917 282.469 77.9603 276.913 75.4342C264.635 69.6306 252.657 55.5713 253.503 39.923L253.717 16.8516L255.081 16.865L254.865 39.9651C254.051 55.0439 265.63 68.5925 277.486 74.199C283.984 77.1514 291.251 77.1177 298.283 77.084C299.889 77.0773 301.49 77.0722 303.075 77.0958L303.054 78.4591C301.481 78.4338 299.885 78.4389 298.288 78.4473C296.994 78.454 295.689 78.4591 294.385 78.4473Z" fill="#0C6635"/>
<path fill-rule="evenodd" clip-rule="evenodd" d="M296.355 76.1387C284.546 76.0292 273.929 71.9916 266.551 64.6527C258.498 56.6432 254.818 45.1622 256.186 32.3281C256.208 30.043 256.233 27.2154 256.259 24.3624C256.287 21.1539 256.314 17.9116 256.344 15.3047L257.366 15.3165C257.337 17.9234 257.308 21.164 257.281 24.3708C257.256 27.2255 257.229 30.0532 257.206 32.3871C255.868 44.9566 259.443 56.1427 267.271 63.9281C275.793 72.4044 288.782 76.3544 302.915 74.7754L303.028 75.7916C300.772 76.0444 298.542 76.159 296.355 76.1387Z" fill="#37813E"/>
<path fill-rule="evenodd" clip-rule="evenodd" d="M296.293 73.2702C276.58 73.0865 262.337 62.2544 259.223 44.4423L259.278 44.4305L259.221 44.4322C258.618 38.2275 258.776 31.5205 258.928 25.031C259.016 21.3372 259.107 17.5152 259.046 13.9259L259.728 13.9141C259.787 17.5186 259.696 21.3456 259.609 25.0479C259.459 31.5037 259.3 38.1786 259.895 44.3328L259.899 44.3581C264.044 67.9485 285.75 74.1212 303.094 72.244L303.168 72.9197C300.814 73.1742 298.516 73.2904 296.293 73.2702Z" fill="#659D41"/>
<path fill-rule="evenodd" clip-rule="evenodd" d="M297.094 70.5155C277.69 70.3335 264.859 60.6775 261.516 43.4283C261.512 43.4165 261.512 43.4064 261.509 43.3963L261.652 43.3676L261.507 43.3811C260.901 37.3988 261.056 30.9261 261.207 24.6658C261.293 21.0966 261.383 17.4062 261.32 13.9415L262.001 13.9297C262.063 17.4095 261.974 21.1068 261.888 24.6827C261.74 30.9143 261.585 37.3567 262.183 43.2918C265.791 61.9094 280.688 71.4979 303.117 69.5987L303.174 70.2778C301.083 70.4548 299.054 70.534 297.094 70.5155Z" fill="#9DB73B"/>
<mask id="mask0_1164_11312" style="mask-type:luminance" maskUnits="userSpaceOnUse" x="263" y="13" width="41" height="55">
<path d="M263.844 13.2109H303.193V67.8713H263.844V13.2109Z" fill="white"/>
</mask>
<g mask="url(#mask0_1164_11312)">
<path fill-rule="evenodd" clip-rule="evenodd" d="M297.594 67.8689C290.027 67.7981 283.322 66.1669 277.973 63.0662C270.41 58.6814 265.793 51.6223 264.251 42.0894C263.66 35.6825 263.838 28.7683 264.009 22.0816C264.084 19.1376 264.164 16.0942 264.169 13.2109L264.509 13.2126C264.504 16.0976 264.425 19.1444 264.349 22.09C264.179 28.7598 264 35.6572 264.588 42.0389L264.59 42.0523V42.0591C266.12 51.474 270.68 58.4438 278.145 62.773C284.716 66.5814 293.364 68.1537 303.166 67.3077L303.193 67.6481C301.282 67.8133 299.414 67.8857 297.594 67.8689Z" fill="#C6D12D"/>
</g>
<path fill-rule="evenodd" clip-rule="evenodd" d="M213.304 78.4451C212 78.4333 210.699 78.403 209.405 78.3726C207.809 78.3356 206.218 78.3002 204.641 78.2951L204.642 76.9335C206.228 76.9352 207.831 76.9723 209.437 77.0094C216.457 77.1728 223.73 77.3447 230.294 74.5103C242.243 69.1313 254.071 55.8 253.542 40.7415L253.756 17.6094L255.118 17.6212L254.904 40.7229C255.456 56.3527 243.217 70.1862 230.843 75.7556C225.232 78.1805 219.237 78.5007 213.304 78.4451Z" fill="#0C6635"/>
<path fill-rule="evenodd" clip-rule="evenodd" d="M211.382 76.1121C209.193 76.0919 206.97 75.9368 204.719 75.6419L204.85 74.6275C218.958 76.4744 232.01 72.7654 240.69 64.4474C248.662 56.8086 252.447 45.6934 251.347 33.1508C251.365 30.6129 251.394 27.6251 251.424 24.6188C251.455 21.3715 251.488 18.104 251.509 15.4297L252.532 15.4381C252.51 18.1125 252.478 21.38 252.446 24.6273C252.417 27.6319 252.387 30.623 252.365 33.1086C253.492 45.9192 249.598 57.3293 241.396 65.1872C233.884 72.3845 223.191 76.2216 211.382 76.1121Z" fill="#37813E"/>
<path fill-rule="evenodd" clip-rule="evenodd" d="M211.509 73.2383C209.283 73.2164 206.991 73.0597 204.641 72.7597L204.728 72.084C222.023 74.2865 243.847 68.5249 248.436 45.0187C249.151 38.8696 249.117 32.1863 249.087 25.7204C249.068 22.0147 249.049 18.1827 249.179 14.5781L249.86 14.6017C249.732 18.1928 249.749 22.0164 249.767 25.717C249.801 32.2015 249.831 38.9101 249.112 45.1013L248.992 45.0861L249.112 45.1097C245.666 62.8595 231.219 73.422 211.509 73.2383Z" fill="#659D41"/>
<path fill-rule="evenodd" clip-rule="evenodd" d="M210.761 70.4715C208.798 70.453 206.771 70.3367 204.68 70.1193L204.75 69.4436C227.118 71.7607 242.201 62.4603 246.165 43.9287L246.172 43.9017C246.886 37.7408 246.852 31.0608 246.817 24.6033C246.798 20.864 246.778 16.9982 246.91 13.3516L247.59 13.3768C247.459 17.0067 247.479 20.8657 247.499 24.5983C247.533 31.0878 247.57 37.7964 246.844 44.0096L246.751 44.0028L246.841 44.0247C243.182 61.2285 230.173 70.6535 210.761 70.4715Z" fill="#9DB73B"/>
<path fill-rule="evenodd" clip-rule="evenodd" d="M210.315 67.7933C208.495 67.7748 206.628 67.6686 204.719 67.4681L204.752 67.1277C214.53 68.154 223.21 66.7485 229.854 63.0614C237.399 58.8738 242.087 51.9917 243.792 42.6053C244.504 36.2304 244.455 29.323 244.406 22.6464C244.387 19.6991 244.364 16.6523 244.413 13.7656L244.755 13.7707C244.704 16.6523 244.728 19.6991 244.748 22.643C244.795 29.323 244.844 36.2287 244.134 42.6155L244.128 42.661C242.407 52.1551 237.66 59.1199 230.018 63.3597C224.614 66.3593 217.88 67.8641 210.315 67.7933Z" fill="#C6D12D"/>
<path fill-rule="evenodd" clip-rule="evenodd" d="M255.151 5.87562L255.05 16.5713C256.379 15.2518 259.146 13.2246 263.669 13.1235L263.779 1.22796C262.301 1.35098 257.958 2.04021 255.151 5.87562ZM254 19.6787L254.133 5.54533L254.226 5.41388C257.938 0.181482 264.042 0.178111 264.301 0.179741L264.81 0.184852L264.68 14.1463L264.17 14.1413C257.8 14.0806 255.065 18.0778 254.954 18.248L254 19.6787Z" fill="#0C6635"/>
<path fill-rule="evenodd" clip-rule="evenodd" d="M245.194 12.9555C249.715 13.1425 252.443 15.222 253.746 16.5651L253.845 5.86939C251.11 1.98006 246.781 1.21163 245.305 1.05996L245.194 12.9555ZM254.738 19.691L253.812 18.2435C253.702 18.0699 251.043 14.0238 244.673 13.9649L244.164 13.9598L244.294 0L244.806 0.00337031C245.062 0.00505546 251.166 0.124701 254.779 5.42282L254.87 5.55595L254.738 19.691Z" fill="#0C6635"/>
<path fill-rule="evenodd" clip-rule="evenodd" d="M257.239 77.7593C257.202 76.814 256.389 74.4025 256.031 76.2427C256.734 76.91 257.17 80.5668 257.239 77.7593ZM259.471 77.8503C259.457 77.5099 260.283 77.1257 260.229 76.7634C260.274 76.546 258.862 76.3556 259.715 76.0809C259.863 76.0287 259.958 76 260 76L260.108 75.3984C259.228 75.6141 258.227 76.7836 259.491 77.2875C258.404 78.2312 258.915 78.8126 260.271 78.9103L260.554 78.2177C260.03 78.1048 259.668 77.9818 259.471 77.8503ZM263.692 75.6023C263.463 75.8753 262.902 76.2275 262.544 76.0877C261.993 75.2805 261.86 75.7422 261.65 76.1298C262.383 76.7533 262.536 78.1334 262.954 78.9996C263.323 78.703 263.02 77.4189 262.892 77.0078C263.528 77.0111 263.884 76.1247 263.692 75.6023ZM266.831 77.9194C264.907 74.1632 266.154 76.3388 264.319 78.302C264.256 80.2517 265.534 76.9336 265.618 76.7718C266.033 77.6987 266.661 79.7327 267.084 78.1992C266.971 78.0745 266.889 77.9818 266.831 77.9194Z" fill="#0C6635"/>
<mask id="mask1_1164_11312" style="mask-type:luminance" maskUnits="userSpaceOnUse" x="252" y="77" width="3" height="2">
<path d="M252.156 77.6875H254.458V78.9825H252.156V77.6875Z" fill="white"/>
</mask>
<g mask="url(#mask1_1164_11312)">
<path fill-rule="evenodd" clip-rule="evenodd" d="M252.156 78.8887L254.451 78.9106L254.458 78.186L252.163 78.1641L252.156 78.8887Z" fill="#0C6635"/>
</g>
<path fill-rule="evenodd" clip-rule="evenodd" d="M240.149 77.9428C243.268 75.7572 240.078 73.5075 239.2 76.0251L239.886 76.101C239.83 75.4084 240.872 75.3426 240.845 76.0251C240.686 76.9452 239.077 77.5552 239.094 78.5731L241.514 78.5967L241.519 77.9563L240.149 77.9428ZM242.36 75.3578C241.891 75.828 241.869 77.7912 242.301 78.2596C244.94 80.5346 245.066 73.2446 242.36 75.3578ZM243.396 75.651C243.721 76.106 243.71 77.567 243.374 78.0237C242.398 78.5899 242.427 75.0747 243.396 75.651ZM245.157 75.3831C244.261 76.4599 244.96 79.8875 246.761 78.3372C247.648 77.2789 246.962 73.8327 245.157 75.3831ZM246.192 75.6763C246.672 76.0807 246.414 79.2084 245.568 77.7288C245.528 77.2856 245.251 75.223 246.192 75.6763ZM249.169 75.7572C248.532 76.5357 248.082 77.6597 248.056 78.6573L248.721 78.6641C248.723 77.6631 249.254 76.3234 249.96 75.6257L249.965 75.1236L247.606 75.1017L247.599 75.742L249.169 75.7572Z" fill="#0C6635"/>
<path fill-rule="evenodd" clip-rule="evenodd" d="M6.0699 39.6472C6.0699 39.4956 6.12551 39.3742 6.2401 39.2832C6.353 39.1923 6.4777 39.1484 6.61252 39.1484H7.49722C7.63372 39.1484 7.75337 39.1923 7.85953 39.2832C7.96569 39.3742 8.01793 39.4956 8.01793 39.6472V40.8707C8.01793 41.0055 7.96569 41.1184 7.85953 41.2094C7.75337 41.2987 7.63372 41.3459 7.49722 41.3459H6.61252C6.4777 41.3459 6.353 41.2987 6.2401 41.2094C6.12551 41.1184 6.0699 41.0055 6.0699 40.8707V39.6472ZM2.37941 39.6472C2.37941 39.4956 2.42659 39.3742 2.52433 39.2832C2.62376 39.1923 2.74677 39.1484 2.89844 39.1484H3.78314C3.93312 39.1484 4.05782 39.1923 4.15556 39.2832C4.25499 39.3742 4.30386 39.4956 4.30386 39.6472V40.8707C4.30386 41.0055 4.24993 41.1184 4.14377 41.2094C4.03929 41.2987 3.91964 41.3459 3.78314 41.3459H2.89844C2.74677 41.3459 2.62376 41.2987 2.52433 41.2094C2.42659 41.1184 2.37941 41.0055 2.37941 40.8707V39.6472ZM2.33223 49.1818C2.33223 50.0885 2.53613 50.7945 2.94562 51.3001C3.35174 51.8073 4.04603 52.0601 5.02847 52.0601H5.45819C5.684 52.0601 5.91823 52.0432 6.16089 52.0146C6.40187 51.9843 6.62094 51.9236 6.8181 51.8326C7.01358 51.7433 7.17199 51.6186 7.295 51.4602C7.41465 51.3001 7.47532 51.1012 7.47532 50.8586V45.7172C7.17199 45.6868 6.90742 45.6649 6.68161 45.6498C6.4558 45.6346 6.24515 45.6262 6.0463 45.6262C5.50368 45.6262 5.00488 45.6717 4.55326 45.7627C4.09995 45.8537 3.71068 46.0154 3.38545 46.2497C3.0619 46.4839 2.80575 46.8007 2.61533 47.2001C2.42659 47.6012 2.33223 48.105 2.33223 48.7066V49.1818ZM0.429688 48.8431C0.429688 47.9534 0.572926 47.19 0.861087 46.5564C1.14756 45.9211 1.55031 45.4037 2.07271 45.0043C2.59342 44.6033 3.21356 44.3101 3.92975 44.1196C4.64594 43.9309 5.43628 43.8365 6.29739 43.8365C6.49287 43.8365 6.72037 43.845 6.97651 43.8601C7.23265 43.8753 7.48711 43.8972 7.73483 43.9275C7.98423 43.9596 8.22184 43.9916 8.44933 44.0303C8.67514 44.0674 8.87062 44.1078 9.03914 44.1533C9.18912 44.1837 9.2818 44.2342 9.32056 44.3016C9.35763 44.369 9.37785 44.4634 9.37785 44.5847V50.9496C9.37785 51.5529 9.52109 51.9421 9.80757 52.1157C10.0957 52.2909 10.4799 52.3769 10.9636 52.3769H11.4843V54.3249H10.7142C10.0351 54.3249 9.4638 54.2255 9.00375 54.03C8.5437 53.8346 8.19151 53.4941 7.95053 53.0105C7.69439 53.3425 7.29837 53.5818 6.76081 53.725C6.22493 53.8666 5.64018 53.939 5.00488 53.939H4.80098C3.39724 53.939 2.31706 53.5548 1.56211 52.7847C0.807162 52.0146 0.429688 50.8973 0.429688 49.4329V48.8431Z" fill="#0C6635"/>
<path fill-rule="evenodd" clip-rule="evenodd" d="M15.4779 56.9448C15.4779 56.7932 15.5352 56.6735 15.6481 56.5825C15.761 56.4898 15.8857 56.446 16.0222 56.446H16.9053C17.0418 56.446 17.1614 56.4898 17.2676 56.5825C17.3737 56.6735 17.426 56.7932 17.426 56.9448V58.1682C17.426 58.2879 17.3737 58.3974 17.2676 58.4952C17.1614 58.5946 17.0418 58.6434 16.9053 58.6434H16.0222C15.8857 58.6434 15.761 58.5946 15.6481 58.4952C15.5352 58.3974 15.4779 58.2879 15.4779 58.1682V56.9448ZM11.7875 56.9448C11.7875 56.7932 11.8346 56.6735 11.9324 56.5825C12.0318 56.4898 12.1565 56.446 12.3065 56.446H13.1912C13.3412 56.446 13.4659 56.4898 13.5636 56.5825C13.663 56.6735 13.7119 56.7932 13.7119 56.9448V58.1682C13.7119 58.2879 13.6597 58.3974 13.5518 58.4952C13.4473 58.5946 13.3277 58.6434 13.1912 58.6434H12.3065C12.1565 58.6434 12.0318 58.5946 11.9324 58.4952C11.8346 58.3974 11.7875 58.2879 11.7875 58.1682V56.9448ZM10.5859 52.6864C10.5859 52.5954 10.6618 52.5247 10.8117 52.4707C10.9634 52.4168 11.1454 52.3915 11.3561 52.3915H12.3756C12.5255 52.3915 12.6924 52.3848 12.8727 52.3679C13.0564 52.3528 13.2283 52.3208 13.3951 52.2685C13.5602 52.2129 13.7001 52.132 13.8147 52.0174C13.9276 51.9045 13.9832 51.7495 13.9832 51.554V45.6172C13.9832 45.4976 14.0253 45.3948 14.1096 45.3139C14.1905 45.2313 14.2933 45.1875 14.4146 45.1875H15.456C15.5774 45.1875 15.6785 45.2313 15.761 45.3139C15.8453 45.3948 15.8857 45.4976 15.8857 45.6172V51.8489C15.9329 51.9686 16.0256 52.0629 16.1689 52.132C16.3121 52.1994 16.4722 52.2517 16.6441 52.2887C16.8193 52.3275 16.9963 52.3528 17.1783 52.3679C17.3586 52.3848 17.517 52.3915 17.6535 52.3915H17.9703V54.3396H17.6973C17.2305 54.3396 16.7283 54.2907 16.1924 54.193C15.6549 54.0952 15.2151 53.893 14.8679 53.593C14.4888 53.893 14.0405 54.0952 13.5198 54.193C12.9974 54.2907 12.5255 54.3396 12.1026 54.3396H11.3561C11.1454 54.3396 10.9634 54.3126 10.8117 54.2604C10.6618 54.2064 10.5859 54.1272 10.5859 54.0228V52.6864Z" fill="#0C6635"/>
<path fill-rule="evenodd" clip-rule="evenodd" d="M17.0625 52.6849C17.0625 52.5939 17.1383 52.5232 17.2883 52.4692C17.44 52.417 17.6203 52.39 17.8326 52.39H19.6442C20.0823 52.39 20.3587 52.353 20.4699 52.2771C20.5845 52.2013 20.6401 51.9671 20.6401 51.5744V37.7578C20.6401 37.6365 20.6822 37.5354 20.7648 37.4528C20.8474 37.3686 20.9501 37.3281 21.0715 37.3281H22.1803C22.3016 37.3281 22.3994 37.3686 22.4752 37.4528C22.551 37.5354 22.5881 37.6365 22.5881 37.7578V50.8262V51.4396C22.5881 51.6671 22.5847 51.8996 22.5763 52.1423C22.5713 52.3833 22.5595 52.6175 22.5443 52.8433C22.5275 53.0708 22.5055 53.2747 22.4752 53.455C22.4449 53.6067 22.3994 53.7348 22.3404 53.8409C22.2797 53.9454 22.1567 54.0381 21.9764 54.1123C21.8568 54.1578 21.6832 54.1931 21.4557 54.2134C21.2299 54.237 20.9805 54.2606 20.7075 54.2808C20.4379 54.3044 20.1531 54.3195 19.8582 54.328C19.5633 54.3347 19.2886 54.3381 19.0324 54.3381H17.8326C17.6203 54.3381 17.44 54.3128 17.2883 54.2605C17.1383 54.2049 17.0625 54.1257 17.0625 54.0213V52.6849Z" fill="#0C6635"/>
<path fill-rule="evenodd" clip-rule="evenodd" d="M26.4297 37.7502C26.4297 37.6305 26.4718 37.5244 26.5544 37.4351C26.637 37.3441 26.7398 37.2969 26.8611 37.2969H27.9699C28.0912 37.2969 28.189 37.3441 28.2648 37.4351C28.3407 37.5244 28.3777 37.6305 28.3777 37.7502V51.0477C28.3777 51.3494 28.4131 51.587 28.4805 51.7605C28.5479 51.9341 28.6457 52.0672 28.7754 52.1566C28.9035 52.2492 29.0619 52.3082 29.2506 52.3386C29.4394 52.3689 29.6551 52.3841 29.896 52.3841H30.4623V54.3321H29.3989C28.9153 54.3321 28.4923 54.29 28.13 54.2074C27.7677 54.1248 27.4559 53.9732 27.1998 53.7541C26.9437 53.535 26.7499 53.2435 26.6235 52.8812C26.4937 52.5205 26.4297 52.0504 26.4297 51.4774V37.7502Z" fill="#0C6635"/>
<path fill-rule="evenodd" clip-rule="evenodd" d="M34.646 49.0706V50.112C34.646 50.6109 34.6763 51.0338 34.737 51.3793C34.8718 52.0146 35.1667 52.4763 35.62 52.7611C36.0733 53.0476 36.6614 53.1908 37.3861 53.1908C38.3837 53.1908 39.0847 52.9397 39.4925 52.4342C39.9003 51.927 40.1042 51.1535 40.1042 50.112V49.0706C40.1042 48.0444 39.9037 47.254 39.5043 46.703C39.1049 46.1519 38.4123 45.8756 37.4316 45.8756C36.4356 45.8756 35.7228 46.1486 35.2914 46.6912C34.86 47.2355 34.646 48.0292 34.646 49.0706ZM29.5703 52.6718C29.5703 52.5808 29.6461 52.51 29.7978 52.4561C29.9495 52.4039 30.1298 52.3769 30.3404 52.3769H31.0667C31.1712 52.3769 31.3111 52.3735 31.4846 52.3651C31.6599 52.3584 31.8284 52.3331 31.9952 52.2859C32.1604 52.2421 32.3087 52.178 32.4368 52.0938C32.5665 52.0112 32.6457 51.8933 32.6744 51.7433C32.7199 51.5613 32.7418 51.3439 32.7418 51.0844V48.9105C32.7418 47.3551 33.1462 46.162 33.9551 45.3313C34.7623 44.5022 35.9217 44.0859 37.4316 44.0859C38.9414 44.0859 40.0823 44.4937 40.8524 45.311C41.6225 46.125 42.0067 47.3265 42.0067 48.9105V50.1795C42.0067 50.3614 42.0034 50.5569 41.9949 50.7693C41.9865 50.9799 41.9697 51.1686 41.9393 51.3355C41.9545 51.5478 42.0303 51.7197 42.1668 51.8545C42.3016 51.991 42.4567 52.0988 42.6286 52.173C42.8038 52.2488 42.9808 52.3011 43.1628 52.3331C43.3431 52.3617 43.4947 52.3769 43.6144 52.3769H43.9093V54.3249H43.6144C43.1156 54.3249 42.6286 54.2542 42.1534 54.1092C41.6798 53.966 41.2973 53.7436 41.0091 53.4419C40.2997 54.4682 39.0931 54.9821 37.3861 54.9821C36.5401 54.9821 35.7902 54.8574 35.133 54.608C34.4741 54.3603 33.9736 53.9778 33.6265 53.4638C33.3248 53.811 32.9305 54.0418 32.4469 54.1547C31.9649 54.2676 31.4442 54.3249 30.8864 54.3249H30.3404C30.1298 54.3249 29.9495 54.2997 29.7978 54.2457C29.6461 54.1918 29.5703 54.1126 29.5703 54.0081V52.6718Z" fill="#0C6635"/>
<path fill-rule="evenodd" clip-rule="evenodd" d="M53.4631 41.1984C53.4631 41.0468 53.5204 40.9221 53.635 40.8226C53.7479 40.7266 53.8709 40.676 54.0074 40.676H54.8921C55.0269 40.676 55.1483 40.7266 55.2528 40.8226C55.3589 40.9221 55.4128 41.0468 55.4128 41.1984V42.3309C55.4128 42.4657 55.3589 42.5786 55.2528 42.6696C55.1483 42.7606 55.0269 42.8061 54.8921 42.8061H54.0074C53.8709 42.8061 53.7479 42.7606 53.635 42.6696C53.5204 42.5786 53.4631 42.4657 53.4631 42.3309V41.1984ZM51.6735 38.3893C51.6735 38.2528 51.7274 38.1399 51.8319 38.0489C51.9381 37.9579 52.0594 37.9141 52.1959 37.9141H53.0334C53.1699 37.9141 53.2895 37.9579 53.3957 38.0489C53.5002 38.1399 53.5558 38.2528 53.5558 38.3893V39.4088C53.5558 39.5588 53.4985 39.6767 53.3839 39.7593C53.2727 39.8419 53.148 39.884 53.0098 39.884H52.1723C52.0375 39.884 51.9195 39.8419 51.8218 39.7593C51.724 39.6767 51.6735 39.5588 51.6735 39.4088V38.3893ZM49.7726 41.1984C49.7726 41.0468 49.8215 40.9221 49.9192 40.8226C50.017 40.7266 50.1417 40.676 50.2933 40.676H51.1764C51.3263 40.676 51.4527 40.7266 51.5505 40.8226C51.6482 40.9221 51.6971 41.0468 51.6971 41.1984V42.3309C51.6971 42.4657 51.6448 42.5786 51.537 42.6696C51.4325 42.7606 51.3129 42.8061 51.1764 42.8061H50.2933C50.1417 42.8061 50.017 42.7606 49.9192 42.6696C49.8215 42.5786 49.7726 42.4657 49.7726 42.3309V41.1984ZM43 52.6811C43 52.5918 43.0758 52.521 43.2258 52.4671C43.3775 52.4131 43.5578 52.3878 43.7684 52.3878H44.6312C44.7812 52.3878 44.9463 52.3811 45.1283 52.3643C45.3087 52.3491 45.4805 52.3171 45.6373 52.2631C45.7957 52.2092 45.9322 52.1266 46.0468 52.0137C46.1597 51.9008 46.2153 51.7458 46.2153 51.5503V46.6566C46.2153 46.5353 46.254 46.4291 46.3299 46.3398C46.4057 46.2488 46.5017 46.2033 46.6231 46.2033H47.6662C47.7858 46.2033 47.8836 46.2488 47.9594 46.3398C48.0352 46.4291 48.074 46.5353 48.074 46.6566V51.8907C48.1178 52.0104 48.2139 52.1047 48.3571 52.1721C48.5003 52.2412 48.6571 52.2935 48.8323 52.3306C49.0042 52.3693 49.1828 52.3963 49.3631 52.4098C49.5451 52.4249 49.7052 52.4333 49.84 52.4333H50.3153C50.4517 52.4333 50.6068 52.4216 50.7804 52.398C50.9539 52.3761 51.1157 52.339 51.2674 52.2851C51.4173 52.2328 51.5454 52.1536 51.6516 52.0474C51.7561 51.943 51.8117 51.798 51.8117 51.6177V45.8865C51.8117 45.7652 51.8521 45.6641 51.9364 45.5815C52.0189 45.4989 52.1201 45.4551 52.2397 45.4551H53.2828C53.4041 45.4551 53.5002 45.4989 53.576 45.5815C53.6519 45.6641 53.6906 45.7652 53.6906 45.8865V51.8907C53.7816 52.13 54.0074 52.2817 54.3697 52.3423C54.732 52.4013 55.1112 52.4333 55.5022 52.4333H55.7971C55.9335 52.4333 56.0953 52.4249 56.2841 52.4098C56.4728 52.3963 56.6514 52.3609 56.8166 52.3086C56.9834 52.2564 57.1233 52.1721 57.2345 52.0576C57.3491 51.9463 57.4064 51.798 57.4064 51.6177V45.0254C57.4064 44.9041 57.4468 44.803 57.5294 44.7204C57.6136 44.6378 57.7131 44.5957 57.8361 44.5957H58.9011C59.0208 44.5957 59.1185 44.6378 59.1943 44.7204C59.2702 44.803 59.3089 44.9041 59.3089 45.0254V51.8435C59.3527 51.9649 59.4522 52.0576 59.6038 52.1266C59.7521 52.1941 59.9206 52.248 60.1009 52.2851C60.2829 52.3238 60.4632 52.3491 60.6452 52.3643C60.8256 52.3811 60.984 52.3878 61.1205 52.3878H61.5519V54.3359H61.1643C60.7581 54.3359 60.2897 54.287 59.7605 54.1893C59.2331 54.0898 58.7714 53.8893 58.3787 53.5894C58.0316 53.8893 57.617 54.0898 57.1334 54.1893C56.6514 54.287 56.1897 54.3359 55.7516 54.3359H55.3893C54.8601 54.3359 54.3883 54.287 53.9737 54.1893C53.5592 54.0898 53.148 53.8893 52.7385 53.5894C52.1352 54.0848 51.2589 54.3359 50.113 54.3359H49.7254C49.3345 54.3359 48.8997 54.287 48.4245 54.1893C47.9493 54.0898 47.5364 53.8893 47.1893 53.5894C47.009 53.7545 46.8 53.8826 46.5658 53.9736C46.3332 54.0646 46.0939 54.1404 45.853 54.1994C45.612 54.26 45.3744 54.2971 45.1401 54.3123C44.9059 54.3275 44.6902 54.3359 44.4947 54.3359H43.7684C43.5578 54.3359 43.3775 54.3089 43.2258 54.2567C43.0758 54.2028 43 54.1236 43 54.0174V52.6811Z" fill="#0C6635"/>
<path fill-rule="evenodd" clip-rule="evenodd" d="M60.6406 52.6849C60.6406 52.5939 60.7165 52.5232 60.8664 52.4692C61.0181 52.417 61.1984 52.39 61.4107 52.39H63.2223C63.6604 52.39 63.9368 52.353 64.048 52.2771C64.1626 52.2013 64.2199 51.9671 64.2199 51.5744V37.7578C64.2199 37.6365 64.2603 37.5354 64.3429 37.4528C64.4272 37.3686 64.53 37.3281 64.6496 37.3281H65.7601C65.8798 37.3281 65.9792 37.3686 66.055 37.4528C66.1292 37.5354 66.1662 37.6365 66.1662 37.7578V50.8262V51.4396C66.1662 51.6671 66.1629 51.8996 66.1561 52.1423C66.1494 52.3833 66.1376 52.6175 66.1224 52.8433C66.1073 53.0708 66.0837 53.2747 66.055 53.455C66.023 53.6067 65.9792 53.7348 65.9185 53.8409C65.8579 53.9454 65.7365 54.0381 65.5562 54.1123C65.4366 54.1578 65.2613 54.1931 65.0338 54.2134C64.8097 54.237 64.5586 54.2606 64.2873 54.2808C64.016 54.3044 63.7329 54.3195 63.438 54.328C63.1431 54.3347 62.8667 54.3381 62.6106 54.3381H61.4107C61.1984 54.3381 61.0181 54.3128 60.8664 54.2605C60.7165 54.2049 60.6406 54.1257 60.6406 54.0213V52.6849Z" fill="#0C6635"/>
<path fill-rule="evenodd" clip-rule="evenodd" d="M70.0078 37.7502C70.0078 37.6305 70.0499 37.5244 70.1325 37.4351C70.2151 37.3441 70.3179 37.2969 70.4392 37.2969H71.548C71.6694 37.2969 71.7671 37.3441 71.8429 37.4351C71.9188 37.5244 71.9559 37.6305 71.9559 37.7502V53.8788C71.9559 54.0001 71.9188 54.1046 71.8429 54.1956C71.7671 54.2866 71.6694 54.3321 71.548 54.3321H70.4392C70.3179 54.3321 70.2151 54.2866 70.1325 54.1956C70.0499 54.1046 70.0078 54.0001 70.0078 53.8788V37.7502Z" fill="#0C6635"/>
<path fill-rule="evenodd" clip-rule="evenodd" d="M80.6406 52.787C80.6406 52.6674 80.6844 52.5679 80.7754 52.4921C80.8681 52.4163 80.9726 52.3792 81.0939 52.3792H87.2768L87.2549 49.592C87.2245 48.2641 86.8875 47.2749 86.2454 46.6261C85.6034 45.9756 84.567 45.6521 83.133 45.6521C82.9661 45.6521 82.7302 45.6571 82.4303 45.6622C82.1269 45.6706 81.8641 45.6891 81.6366 45.7195C81.3349 45.7498 81.1832 45.6436 81.1832 45.4027V44.4741C81.1832 44.3528 81.217 44.2568 81.286 44.1809C81.3535 44.1051 81.4697 44.0579 81.6366 44.0444C82.0292 43.9821 82.4033 43.945 82.7589 43.9298C83.1127 43.9147 83.3739 43.9062 83.5408 43.9062C84.567 43.9062 85.4315 44.0444 86.1342 44.3157C86.8353 44.5871 87.4065 44.9713 87.843 45.4701C88.2811 45.9689 88.5996 46.5587 88.7951 47.2378C88.9906 47.9169 89.1035 48.6651 89.1338 49.4791C89.1338 49.5397 89.1372 49.6914 89.1456 49.9324C89.154 50.175 89.1608 50.4379 89.1692 50.7244C89.1742 51.0125 89.1793 51.2839 89.1793 51.5417V52.0624V52.4702C89.1793 52.6202 89.1709 52.787 89.1574 52.9673V53.4661C89.1422 53.633 89.1271 53.7695 89.1119 53.8756C89.1119 54.1756 88.9451 54.3272 88.6131 54.3272H81.0939C80.9726 54.3272 80.8681 54.2935 80.7754 54.2261C80.6844 54.1554 80.6406 54.0627 80.6406 53.943V52.787Z" fill="#0C6635"/>
<path fill-rule="evenodd" clip-rule="evenodd" d="M99.083 45.7696C98.7814 45.7392 98.4865 45.7173 98.2017 45.7022C97.9135 45.6853 97.5731 45.6786 97.1805 45.6786C96.1845 45.6786 95.3959 45.9583 94.8145 46.5161C94.2314 47.0756 93.9416 47.876 93.9416 48.9174V49.3724C93.9416 50.4425 94.1691 51.221 94.6224 51.703C95.074 52.1883 95.8441 52.4293 96.9327 52.4293C97.5209 52.4293 98.0264 52.3922 98.4494 52.3164C98.8724 52.2406 99.083 52.0299 99.083 51.6811V45.7696ZM92.8311 58.1369C92.8311 57.9263 92.9524 57.8184 93.1951 57.8184C93.4495 57.8184 93.7765 57.8235 94.1691 57.8302C94.5601 57.8386 94.8785 57.8437 95.1195 57.8437C95.7245 57.8437 96.2671 57.81 96.7491 57.7409C97.2327 57.6718 97.6439 57.5437 97.986 57.355C98.3264 57.1679 98.5893 56.9017 98.778 56.563C98.9667 56.2226 99.0611 55.7811 99.0611 55.2368V53.9004C98.9566 53.9931 98.7999 54.0639 98.596 54.1161C98.3938 54.1684 98.1663 54.2156 97.9186 54.2526C97.6675 54.2914 97.4231 54.3116 97.1805 54.32C96.9395 54.3285 96.7288 54.3318 96.5468 54.3318C95.1734 54.3318 94.0764 53.9392 93.2625 53.1539C92.4469 52.3686 92.0391 51.184 92.0391 49.5966V49.032C92.0391 47.4463 92.5075 46.1925 93.4428 45.2708C94.3797 44.349 95.7076 43.8906 97.4315 43.8906C98.0331 43.8906 98.6196 43.9159 99.1858 43.9698C99.7503 44.0221 100.232 44.1097 100.625 44.2293C100.775 44.2732 100.873 44.3237 100.92 44.3759C100.964 44.4282 100.987 44.5175 100.987 44.6371V54.898C100.987 55.835 100.851 56.6051 100.579 57.2084C100.308 57.8117 99.929 58.2919 99.447 58.6475C98.9634 59.0014 98.3887 59.2508 97.7248 59.394C97.0608 59.5373 96.3278 59.6097 95.5273 59.6097C95.3757 59.6097 95.1802 59.6013 94.9375 59.5861H94.2601C94.0174 59.571 93.7984 59.5575 93.6012 59.5423C93.4057 59.5255 93.2692 59.5103 93.1951 59.4968C93.0434 59.4665 92.944 59.4261 92.9002 59.3704C92.8547 59.3182 92.8311 59.239 92.8311 59.1345V58.1369Z" fill="#0C6635"/>
<path fill-rule="evenodd" clip-rule="evenodd" d="M103.836 52.787C103.836 52.6674 103.88 52.5679 103.971 52.4921C104.063 52.4163 104.168 52.3792 104.289 52.3792H110.472L110.45 49.592C110.42 48.2641 110.088 47.2749 109.453 46.6261C108.819 45.9756 107.784 45.6521 106.35 45.6521C106.185 45.6521 105.946 45.6571 105.636 45.6622C105.327 45.6706 105.059 45.6891 104.834 45.7195C104.53 45.7498 104.379 45.6436 104.379 45.4027V44.4741C104.379 44.3528 104.414 44.2568 104.481 44.1809C104.549 44.1051 104.665 44.0579 104.834 44.0444C105.225 43.9821 105.599 43.945 105.954 43.9298C106.31 43.9147 106.569 43.9062 106.736 43.9062C107.745 43.9062 108.607 44.0444 109.318 44.3157C110.027 44.5871 110.602 44.9713 111.038 45.4701C111.476 45.9689 111.798 46.5587 112.002 47.2378C112.206 47.9169 112.322 48.6651 112.353 49.4791L112.375 52.3792H113.871V54.3272H104.289C104.168 54.3272 104.063 54.2935 103.971 54.2261C103.88 54.1554 103.836 54.0627 103.836 53.943V52.787Z" fill="#0C6635"/>
<path fill-rule="evenodd" clip-rule="evenodd" d="M113.784 54.3392C113.543 54.3392 113.354 54.3038 113.22 54.2364C113.083 54.1673 113.016 54.0965 113.016 54.0224V52.686C113.016 52.595 113.09 52.5243 113.241 52.4703C113.393 52.4164 113.573 52.3911 113.784 52.3911H124.294L123.48 50.4431L122.958 49.2433C122.459 48.0805 121.8 47.2177 120.978 46.6599C120.152 46.1005 119.032 45.8224 117.613 45.8224C117.491 45.8224 117.259 45.8325 116.91 45.8561C116.563 45.878 116.261 45.905 116.003 45.9353C115.671 45.9657 115.506 45.8612 115.506 45.6168V44.6883C115.506 44.5687 115.537 44.4743 115.597 44.4052C115.656 44.3378 115.771 44.2889 115.936 44.2603C116.254 44.1844 116.605 44.1305 116.989 44.1002C117.375 44.0699 117.741 44.0547 118.09 44.0547C118.845 44.0547 119.554 44.1271 120.218 44.2704C120.882 44.4136 121.509 44.6782 122.099 45.0624C122.687 45.45 123.229 45.9774 123.728 46.6498C124.227 47.3205 124.695 48.1867 125.134 49.2433L125.383 49.8314L126.29 52.1198C126.364 52.2412 126.424 52.3153 126.47 52.3456C126.515 52.376 126.598 52.3911 126.719 52.3911H126.879V54.3392H113.784Z" fill="#0C6635"/>
<path fill-rule="evenodd" clip-rule="evenodd" d="M125.93 52.6849C125.93 52.5939 126.006 52.5232 126.157 52.4692C126.309 52.417 126.489 52.39 126.7 52.39H128.511C128.949 52.39 129.226 52.353 129.339 52.2771C129.452 52.2013 129.509 51.9671 129.509 51.5744V37.7578C129.509 37.6365 129.549 37.5354 129.632 37.4528C129.716 37.3686 129.819 37.3281 129.939 37.3281H131.049C131.169 37.3281 131.268 37.3686 131.344 37.4528C131.42 37.5354 131.457 37.6365 131.457 37.7578V50.8262V51.4396C131.457 51.6671 131.452 51.8996 131.445 52.1423C131.438 52.3833 131.427 52.6175 131.411 52.8433C131.396 53.0708 131.373 53.2747 131.344 53.455C131.312 53.6067 131.268 53.7348 131.208 53.8409C131.147 53.9454 131.026 54.0381 130.845 54.1123C130.726 54.1578 130.55 54.1931 130.323 54.2134C130.099 54.237 129.848 54.2606 129.576 54.2808C129.305 54.3044 129.022 54.3195 128.727 54.328C128.432 54.3347 128.157 54.3381 127.901 54.3381H126.7C126.489 54.3381 126.309 54.3128 126.157 54.2605C126.006 54.2049 125.93 54.1257 125.93 54.0213V52.6849Z" fill="#0C6635"/>
<path fill-rule="evenodd" clip-rule="evenodd" d="M135.305 37.7502C135.305 37.6305 135.345 37.5244 135.428 37.4351C135.512 37.3441 135.613 37.2969 135.734 37.2969H136.843C136.965 37.2969 137.062 37.3441 137.138 37.4351C137.214 37.5244 137.251 37.6305 137.251 37.7502V53.8788C137.251 54.0001 137.214 54.1046 137.138 54.1956C137.062 54.2866 136.965 54.3321 136.843 54.3321H135.734C135.613 54.3321 135.512 54.2866 135.428 54.1956C135.345 54.1046 135.305 54.0001 135.305 53.8788V37.7502Z" fill="#0C6635"/>
<path fill-rule="evenodd" clip-rule="evenodd" d="M151.945 39.6472C151.945 39.4956 152.001 39.3742 152.115 39.2832C152.228 39.1923 152.353 39.1484 152.488 39.1484H153.372C153.509 39.1484 153.628 39.1923 153.735 39.2832C153.841 39.3742 153.893 39.4956 153.893 39.6472V40.8707C153.893 41.0055 153.841 41.1184 153.735 41.2094C153.628 41.2987 153.509 41.3459 153.372 41.3459H152.488C152.353 41.3459 152.228 41.2987 152.115 41.2094C152.001 41.1184 151.945 41.0055 151.945 40.8707V39.6472ZM148.254 39.6472C148.254 39.4956 148.302 39.3742 148.399 39.2832C148.499 39.1923 148.622 39.1484 148.773 39.1484H149.658C149.808 39.1484 149.933 39.1923 150.031 39.2832C150.13 39.3742 150.179 39.4956 150.179 39.6472V40.8707C150.179 41.0055 150.125 41.1184 150.019 41.2094C149.914 41.2987 149.793 41.3459 149.658 41.3459H148.773C148.622 41.3459 148.499 41.2987 148.399 41.2094C148.302 41.1184 148.254 41.0055 148.254 40.8707V39.6472ZM148.207 49.1818C148.207 50.0885 148.411 50.7945 148.821 51.3001C149.227 51.8073 149.921 52.0601 150.903 52.0601H151.333C151.559 52.0601 151.793 52.0432 152.036 52.0146C152.277 51.9843 152.496 51.9236 152.693 51.8326C152.889 51.7433 153.047 51.6186 153.168 51.4602C153.29 51.3001 153.35 51.1012 153.35 50.8586V45.7172C153.047 45.6868 152.782 45.6649 152.557 45.6498C152.331 45.6346 152.118 45.6262 151.921 45.6262C151.379 45.6262 150.88 45.6717 150.428 45.7627C149.975 45.8537 149.586 46.0154 149.26 46.2497C148.937 46.4839 148.681 46.8007 148.49 47.2001C148.302 47.6012 148.207 48.105 148.207 48.7066V49.1818ZM146.305 48.8431C146.305 47.9534 146.448 47.19 146.736 46.5564C147.023 45.9211 147.425 45.4037 147.948 45.0043C148.468 44.6033 149.087 44.3101 149.805 44.1196C150.521 43.9309 151.311 43.8365 152.172 43.8365C152.368 43.8365 152.594 43.845 152.852 43.8601C153.108 43.8753 153.362 43.8972 153.61 43.9275C153.859 43.9596 154.097 43.9916 154.324 44.0303C154.55 44.0674 154.746 44.1078 154.912 44.1533C155.064 44.1837 155.157 44.2342 155.196 44.3016C155.233 44.369 155.253 44.4634 155.253 44.5847V50.9496C155.253 51.5529 155.396 51.9421 155.683 52.1157C155.969 52.2909 156.355 52.3769 156.837 52.3769H157.359V54.3249H156.589C155.91 54.3249 155.339 54.2255 154.879 54.03C154.419 53.8346 154.067 53.4941 153.824 53.0105C153.569 53.3425 153.173 53.5818 152.636 53.725C152.1 53.8666 151.515 53.939 150.88 53.939H150.676C149.272 53.939 148.192 53.5548 147.437 52.7847C146.682 52.0146 146.305 50.8973 146.305 49.4329V48.8431Z" fill="#0C6635"/>
<path fill-rule="evenodd" clip-rule="evenodd" d="M164.548 52.4125C165.333 52.2321 165.948 51.794 166.395 51.098C166.84 50.4054 167.062 49.5966 167.062 48.6748V48.4254C167.062 47.4295 166.776 46.7082 166.201 46.2633C165.628 45.8168 164.843 45.5943 163.847 45.5943C163.454 45.5943 162.947 45.6466 162.329 45.7527C161.709 45.8589 161.12 46.0999 160.563 46.479L162.873 52.4125H164.548ZM156.461 52.6838C156.461 52.5928 156.537 52.522 156.688 52.4681C156.84 52.4158 157.02 52.3889 157.231 52.3889H160.878L158.749 46.9542C158.719 46.9071 158.701 46.8481 158.692 46.7722C158.685 46.6964 158.682 46.629 158.682 46.5683L158.704 45.9111C158.719 45.7157 158.847 45.5185 159.09 45.323C159.346 45.0955 159.653 44.8882 160.007 44.6995C160.362 44.5108 160.75 44.3524 161.173 44.2243C161.596 44.0945 162.034 43.9934 162.485 43.9176C162.94 43.8418 163.392 43.8047 163.847 43.8047C164.585 43.8047 165.269 43.8873 165.896 44.0541C166.523 44.2209 167.062 44.4804 167.516 44.836C167.967 45.1916 168.319 45.6466 168.569 46.2043C168.818 46.7638 168.941 47.4295 168.941 48.1996V48.6293C168.941 48.9916 168.904 49.3606 168.828 49.7398C168.754 50.1173 168.648 50.4762 168.513 50.8166C168.375 51.1553 168.215 51.4654 168.024 51.7451C167.836 52.0249 167.628 52.2389 167.403 52.3889H170.257V54.3386H157.231C157.02 54.3386 156.84 54.3116 156.688 54.2594C156.537 54.2038 156.461 54.1263 156.461 54.0201V52.6838Z" fill="#0C6635"/>
<path fill-rule="evenodd" clip-rule="evenodd" d="M174.418 49.9322C174.418 50.4158 174.448 50.8321 174.509 51.1792C174.66 51.8449 174.96 52.2931 175.415 52.5257C175.867 52.7616 176.448 52.8779 177.159 52.8779C178.155 52.8779 178.858 52.6386 179.266 52.1633C179.672 51.6881 179.876 50.8927 179.876 49.7738V48.9363C179.876 47.91 179.675 47.1163 179.276 46.5585C178.877 46.0007 178.186 45.7193 177.203 45.7193C176.207 45.7193 175.495 45.9957 175.063 46.5467C174.633 47.0978 174.418 47.8949 174.418 48.9363V49.9322ZM169.344 52.6739C169.344 52.5829 169.42 52.5122 169.57 52.4582C169.721 52.406 169.902 52.379 170.114 52.379H170.838C170.943 52.379 171.081 52.3723 171.246 52.3555C171.413 52.342 171.578 52.3032 171.745 52.2442C171.912 52.1836 172.059 52.1044 172.187 52.0049C172.315 51.9072 172.402 51.769 172.448 51.587C172.492 51.405 172.515 51.1876 172.515 50.9298V48.756C172.515 47.2006 172.918 46.0075 173.727 45.1767C174.534 44.3459 175.693 43.9297 177.203 43.9297C178.713 43.9297 179.856 44.3392 180.626 45.1531C181.394 45.9687 181.78 47.1618 181.78 48.7324V49.8884C181.78 51.4573 181.416 52.647 180.693 53.4559C179.967 54.263 178.791 54.6675 177.159 54.6675C176.312 54.6675 175.569 54.5495 174.928 54.317C174.286 54.0827 173.776 53.7238 173.4 53.2402C173.142 53.648 172.749 53.9311 172.22 54.0895C171.693 54.2496 171.111 54.3271 170.476 54.3271H170.114C169.902 54.3271 169.721 54.3018 169.57 54.2496C169.42 54.194 169.344 54.1148 169.344 54.0103V52.6739Z" fill="#0C6635"/>
<path fill-rule="evenodd" clip-rule="evenodd" d="M185.281 37.7502C185.281 37.6305 185.322 37.5244 185.404 37.4351C185.489 37.3441 185.591 37.2969 185.711 37.2969H186.821C186.941 37.2969 187.041 37.3441 187.116 37.4351C187.191 37.5244 187.228 37.6305 187.228 37.7502V51.0477C187.228 51.3494 187.263 51.587 187.33 51.7605C187.398 51.9341 187.496 52.0672 187.625 52.1566C187.753 52.2492 187.912 52.3082 188.101 52.3386C188.289 52.3689 188.505 52.3841 188.748 52.3841H189.314V54.3321H188.249C187.765 54.3321 187.342 54.29 186.98 54.2074C186.618 54.1248 186.308 53.9732 186.051 53.7541C185.795 53.535 185.601 53.2435 185.473 52.8812C185.345 52.5205 185.281 52.0504 185.281 51.4774V37.7502Z" fill="#0C6635"/>
<path fill-rule="evenodd" clip-rule="evenodd" d="M193.904 56.9427C193.904 56.7911 193.956 56.6714 194.064 56.5804C194.168 56.4877 194.29 56.4439 194.426 56.4439H195.4C195.535 56.4439 195.656 56.4877 195.762 56.5804C195.867 56.6714 195.919 56.7911 195.919 56.9427V58.1662C195.919 58.2858 195.867 58.3953 195.762 58.4931C195.656 58.5925 195.535 58.6414 195.4 58.6414H194.426C194.29 58.6414 194.168 58.5925 194.064 58.4931C193.956 58.3953 193.904 58.2858 193.904 58.1662V56.9427ZM188.422 52.6844C188.422 52.5934 188.498 52.5226 188.649 52.4687C188.801 52.4147 188.981 52.3895 189.192 52.3895H199.702L198.887 50.4431L198.366 49.2416C197.869 48.094 197.208 47.2363 196.384 46.67C195.56 46.1038 194.44 45.8207 193.021 45.8207C192.96 45.8207 192.866 45.8241 192.738 45.8308C192.608 45.8393 192.465 45.8511 192.308 45.8662C192.148 45.8814 191.989 45.8915 191.833 45.8999C191.673 45.9067 191.533 45.9185 191.411 45.9336C191.079 45.964 190.914 45.8595 190.914 45.6151V44.6883C190.914 44.567 190.945 44.4726 191.004 44.4052C191.064 44.3378 191.179 44.2872 191.344 44.2586C191.676 44.1828 192.05 44.1288 192.465 44.0985C192.882 44.0682 193.225 44.0547 193.496 44.0547C194.251 44.0547 194.96 44.1271 195.624 44.2687C196.29 44.4119 196.917 44.6765 197.507 45.0607C198.095 45.4483 198.639 45.9758 199.136 46.6481C199.633 47.3188 200.103 48.185 200.54 49.2416L200.767 49.8297L201.719 52.2546C201.748 52.3591 201.775 52.4653 201.799 52.5698C201.821 52.6776 201.832 52.8124 201.832 52.9776V53.7932C201.832 53.96 201.787 54.0931 201.696 54.1909C201.605 54.2886 201.433 54.3375 201.175 54.3375H189.192C188.966 54.3375 188.781 54.3038 188.638 54.2364C188.494 54.1673 188.422 54.0965 188.422 54.0207V52.6844Z" fill="#0C6635"/>
<path fill-rule="evenodd" clip-rule="evenodd" d="M7.83103 72.0804C7.83103 72.19 7.79395 72.2843 7.71475 72.3635C7.63555 72.4427 7.54118 72.4815 7.43164 72.4815H6.57222C6.34978 72.4815 6.20317 72.4073 6.12902 72.2591L1.8521 64.1332C1.83188 64.108 1.82008 64.0928 1.80997 64.0928C1.80155 64.0928 1.79649 64.108 1.79649 64.1332V72.2186C1.79649 72.2927 1.7729 72.3551 1.7274 72.404C1.6819 72.4562 1.61955 72.4815 1.54709 72.4815H0.827528C0.753381 72.4815 0.694401 72.4714 0.647216 72.4545C0.601717 72.436 0.578125 72.3888 0.578125 72.3163V62.5829C0.578125 62.4734 0.616884 62.3807 0.696086 62.3065C0.775288 62.2324 0.867971 62.1953 0.980877 62.1953H1.74088C1.93467 62.1953 2.06275 62.2155 2.12847 62.2577C2.1925 62.2998 2.25317 62.3706 2.30878 62.4734L6.55873 70.557L6.58738 70.5992C6.59581 70.5992 6.60086 70.584 6.60086 70.557V62.4582C6.60086 62.3857 6.62277 62.3234 6.66995 62.2728C6.71545 62.2206 6.77443 62.1953 6.84858 62.1953H7.58331C7.65577 62.1953 7.71643 62.2206 7.76193 62.2728C7.80743 62.3234 7.83103 62.3857 7.83103 62.4582V72.0804Z" fill="#0C6635"/>
<path fill-rule="evenodd" clip-rule="evenodd" d="M15.9727 66.4319C15.9727 65.8489 15.9154 65.3568 15.7991 64.9507C15.6845 64.5446 15.521 64.2126 15.3087 63.9531C15.0964 63.6953 14.8386 63.5099 14.5335 63.3919C14.2285 63.279 13.8881 63.22 13.509 63.22C13.1298 63.22 12.7894 63.279 12.4844 63.3919C12.1794 63.5099 11.9199 63.6953 11.7025 63.9531C11.4851 64.2126 11.3183 64.5446 11.2037 64.9507C11.0891 65.3568 11.0301 65.8489 11.0301 66.4319V68.2182C11.0301 68.7996 11.0891 69.2933 11.2037 69.6978C11.3183 70.1056 11.4834 70.4376 11.6957 70.6954C11.9081 70.9549 12.1676 71.142 12.4777 71.2565C12.786 71.3728 13.1298 71.4301 13.509 71.4301C13.8881 71.4301 14.2285 71.3728 14.5335 71.2565C14.8386 71.142 15.0964 70.9549 15.3087 70.6954C15.521 70.4376 15.6845 70.1056 15.7991 69.6978C15.9154 69.2933 15.9727 68.7996 15.9727 68.2182V66.4319ZM17.2466 68.2182C17.2466 68.985 17.154 69.6405 16.9703 70.1898C16.7832 70.7392 16.5271 71.1891 16.1951 71.5396C15.8631 71.8902 15.4671 72.1497 15.0121 72.3148C14.5538 72.4816 14.0533 72.5642 13.509 72.5642C12.9647 72.5642 12.4642 72.4816 12.0058 72.3148C11.5508 72.1497 11.1565 71.8902 10.8228 71.5396C10.4909 71.1891 10.2313 70.7392 10.0409 70.1898C9.85218 69.6405 9.75781 68.985 9.75781 68.2182V66.4319C9.75781 65.6669 9.85218 65.008 10.0409 64.4586C10.2313 63.911 10.4909 63.4593 10.8228 63.1088C11.1565 62.7583 11.5508 62.5005 12.0058 62.3337C12.4642 62.1685 12.9647 62.0859 13.509 62.0859C14.0533 62.0859 14.5538 62.1685 15.0121 62.3337C15.4671 62.5005 15.8631 62.7583 16.1951 63.1088C16.5271 63.4593 16.7832 63.911 16.9703 64.4586C17.154 65.008 17.2466 65.6669 17.2466 66.4319V68.2182Z" fill="#0C6635"/>
<path fill-rule="evenodd" clip-rule="evenodd" d="M24.5399 65.0619C24.5399 64.3693 24.3174 63.8907 23.8742 63.6228C23.4327 63.3549 22.7772 63.22 21.9093 63.22H21.5369C21.397 63.22 21.2572 63.2234 21.1139 63.2285C20.9707 63.2318 20.8342 63.2369 20.7061 63.242C20.5747 63.247 20.4702 63.2538 20.386 63.2622V67.0571C20.691 67.0639 20.9825 67.0706 21.2589 67.0757C21.5369 67.0807 21.7526 67.0824 21.9093 67.0824C22.3323 67.0824 22.7098 67.0538 23.0367 66.9931C23.3653 66.9324 23.64 66.8296 23.8624 66.6814C24.0832 66.5347 24.25 66.3376 24.3663 66.0932C24.4826 65.8506 24.5399 65.5371 24.5399 65.1597V65.0619ZM26.1745 72.2879C26.1745 72.4075 26.1138 72.4699 25.9925 72.4699H25.1078C25.0235 72.4699 24.9561 72.4614 24.9072 72.4479C24.855 72.4328 24.8027 72.3822 24.7471 72.2879L22.2683 68.1626H21.9093C21.6785 68.1626 21.4594 68.1609 21.2521 68.1559C21.0448 68.1508 20.755 68.139 20.386 68.1205V72.1901C20.386 72.2643 20.3624 72.33 20.3169 72.3856C20.2714 72.4412 20.2124 72.4699 20.1382 72.4699H19.39C19.3159 72.4699 19.2552 72.4412 19.2097 72.3856C19.1642 72.33 19.1406 72.2643 19.1406 72.1901V62.5005C19.1406 62.3994 19.1642 62.3286 19.2097 62.2882C19.2552 62.2443 19.3428 62.2157 19.4726 62.1972C19.6209 62.1786 19.7945 62.1618 19.9933 62.1483C20.1905 62.1348 20.3977 62.123 20.6151 62.1129C20.8325 62.1045 21.0516 62.0977 21.274 62.0927C21.4931 62.0876 21.7054 62.0859 21.9093 62.0859C22.4553 62.0859 22.9626 62.1382 23.4395 62.2376C23.9147 62.3404 24.3242 62.5055 24.6713 62.7364C25.0168 62.9673 25.2881 63.2723 25.4869 63.6498C25.6874 64.0289 25.7852 64.4991 25.7852 65.0619V65.1597C25.7852 65.5472 25.7313 65.8944 25.6268 66.2045C25.5206 66.5128 25.369 66.7825 25.1768 67.0133C24.9831 67.2442 24.7522 67.438 24.4842 67.5947C24.218 67.7531 23.9265 67.8728 23.6113 67.9553L26.1306 72.1632C26.1593 72.2103 26.1745 72.2525 26.1745 72.2879Z" fill="#0C6635"/>
<path fill-rule="evenodd" clip-rule="evenodd" d="M33.8067 63.0547C33.8067 63.203 33.719 63.2755 33.5455 63.2755H30.8442V72.2051C30.8442 72.2793 30.8223 72.345 30.7751 72.3989C30.7296 72.4545 30.6706 72.4832 30.5964 72.4832H29.8348C29.7606 72.4832 29.6999 72.4545 29.6544 72.3989C29.6073 72.345 29.5854 72.2793 29.5854 72.2051V63.2755H26.8857C26.8116 63.2755 26.7476 63.257 26.6919 63.2216C26.6363 63.1845 26.6094 63.1289 26.6094 63.0547V62.4464C26.6094 62.3723 26.6363 62.3133 26.6919 62.2644C26.7476 62.2206 26.8116 62.1953 26.8857 62.1953H33.5455C33.719 62.1953 33.8067 62.2796 33.8067 62.4464V63.0547Z" fill="#0C6635"/>
<path fill-rule="evenodd" clip-rule="evenodd" d="M42.6296 72.2034C42.6296 72.2776 42.6009 72.3433 42.5453 72.3972C42.4914 72.4528 42.4257 72.4815 42.3532 72.4815H41.6471C41.573 72.4815 41.5073 72.4528 41.4533 72.3972C41.3977 72.3433 41.3691 72.2776 41.3691 72.2034V67.6063H36.6355V72.2034C36.6355 72.2776 36.6068 72.3433 36.5529 72.3972C36.4956 72.4528 36.4316 72.4815 36.3574 72.4815H35.6514C35.5772 72.4815 35.5132 72.4528 35.4576 72.3972C35.4037 72.3433 35.375 72.2776 35.375 72.2034V62.4734C35.375 62.3992 35.4037 62.3352 35.4576 62.2779C35.5132 62.2223 35.5772 62.1953 35.6514 62.1953H36.3574C36.4316 62.1953 36.4956 62.2223 36.5529 62.2779C36.6068 62.3352 36.6355 62.3992 36.6355 62.4734V66.4857H41.3691V62.4734C41.3691 62.3992 41.3977 62.3352 41.4533 62.2779C41.5073 62.2223 41.573 62.1953 41.6471 62.1953H42.3532C42.4257 62.1953 42.4914 62.2223 42.5453 62.2779C42.6009 62.3352 42.6296 62.3992 42.6296 62.4734V72.2034Z" fill="#0C6635"/>
<path fill-rule="evenodd" clip-rule="evenodd" d="M50.5759 72.317C50.5759 72.3625 50.5641 72.4046 50.5405 72.44C50.5186 72.4787 50.4832 72.5006 50.4377 72.5091C50.3079 72.5276 50.1327 72.5411 49.9102 72.5461C49.6912 72.5495 49.4519 72.5563 49.1991 72.5647C48.9446 72.5748 48.6885 72.5782 48.4307 72.5782H47.7381C46.759 72.5782 46.0243 72.381 45.5305 71.985C45.0368 71.5873 44.7891 70.9284 44.7891 70.0049V64.6748C44.7891 63.7513 45.0368 63.0907 45.5305 62.6947C46.0243 62.2987 46.759 62.1016 47.7381 62.1016H48.4172L49.1772 62.1268C49.4266 62.1268 49.6625 62.1369 49.8833 62.1555L50.4377 62.1825C50.4832 62.1926 50.5186 62.2162 50.5405 62.2515C50.5641 62.2886 50.5759 62.3307 50.5759 62.3779V63.0705C50.5759 63.1801 50.5253 63.234 50.4242 63.234H47.7516C47.3825 63.234 47.0876 63.2609 46.8669 63.3115C46.6444 63.3637 46.4725 63.4446 46.3529 63.5609C46.2332 63.6755 46.1524 63.8272 46.1119 64.0092C46.0698 64.1962 46.0496 64.417 46.0496 64.6748V66.5992H50.2995C50.3737 66.5992 50.4377 66.6262 50.4933 66.6818C50.5472 66.7374 50.5759 66.8031 50.5759 66.8756V67.4014C50.5759 67.4772 50.5472 67.5396 50.4933 67.5952C50.4377 67.6508 50.3737 67.6794 50.2995 67.6794H46.0496V70.0049C46.0496 70.2712 46.0698 70.497 46.1119 70.6756C46.1524 70.8559 46.2332 71.0042 46.3529 71.1188C46.4725 71.2334 46.6444 71.3177 46.8669 71.3682C47.0876 71.4188 47.3825 71.4441 47.7516 71.4441H50.4242C50.5253 71.4441 50.5759 71.4997 50.5759 71.6109V72.317Z" fill="#0C6635"/>
<path fill-rule="evenodd" clip-rule="evenodd" d="M57.8116 65.0619C57.8116 64.3693 57.5909 63.8907 57.1477 63.6228C56.7061 63.3549 56.0489 63.22 55.1811 63.22H54.8087C54.6705 63.22 54.5306 63.2234 54.3857 63.2285C54.2425 63.2318 54.1076 63.2369 53.9779 63.242C53.8481 63.247 53.742 63.2538 53.6594 63.2622V67.0571C53.9644 67.0639 54.2559 67.0706 54.5323 67.0757C54.8087 67.0807 55.0261 67.0824 55.1811 67.0824C55.6057 67.0824 55.9832 67.0538 56.3101 66.9931C56.6387 66.9324 56.9134 66.8296 57.1342 66.6814C57.3549 66.5347 57.5234 66.3376 57.638 66.0932C57.756 65.8506 57.8116 65.5371 57.8116 65.1597V65.0619ZM59.4462 72.2879C59.4462 72.4075 59.3872 72.4699 59.2659 72.4699H58.3812C58.2969 72.4699 58.2295 72.4614 58.1807 72.4479C58.1284 72.4328 58.0745 72.3822 58.0206 72.2879L55.5417 68.1626H55.1811C54.9519 68.1626 54.7328 68.1609 54.5239 68.1559C54.3183 68.1508 54.0284 68.139 53.6594 68.1205V72.1901C53.6594 72.2643 53.6358 72.33 53.5903 72.3856C53.5448 72.4412 53.4841 72.4699 53.4117 72.4699H52.6618C52.5876 72.4699 52.5287 72.4412 52.4832 72.3856C52.4377 72.33 52.4141 72.2643 52.4141 72.1901V62.5005C52.4141 62.3994 52.4377 62.3286 52.4832 62.2882C52.5287 62.2443 52.6163 62.2157 52.746 62.1972C52.8926 62.1786 53.0679 62.1618 53.2651 62.1483C53.4639 62.1348 53.6712 62.123 53.8886 62.1129C54.1043 62.1045 54.3233 62.0977 54.5458 62.0927C54.7665 62.0876 54.9789 62.0859 55.1811 62.0859C55.7271 62.0859 56.236 62.1382 56.7129 62.2376C57.1864 62.3404 57.5976 62.5055 57.9431 62.7364C58.2902 62.9673 58.5615 63.2723 58.7604 63.6498C58.9592 64.0289 59.0586 64.4991 59.0586 65.0619V65.1597C59.0586 65.5472 59.0047 65.8944 58.9002 66.2045C58.7924 66.5128 58.6424 66.7825 58.4486 67.0133C58.2565 67.2442 58.0239 67.438 57.7577 67.5947C57.4897 67.7531 57.1999 67.8728 56.8848 67.9553L59.4041 72.1632C59.4327 72.2103 59.4462 72.2525 59.4462 72.2879Z" fill="#0C6635"/>
<path fill-rule="evenodd" clip-rule="evenodd" d="M68.3154 72.0804C68.3154 72.19 68.2783 72.2843 68.1991 72.3635C68.1199 72.4427 68.0256 72.4815 67.916 72.4815H67.0566C66.8342 72.4815 66.6875 72.4073 66.6134 72.2591L62.3365 64.1332C62.3163 64.108 62.3045 64.0928 62.2944 64.0928C62.2859 64.0928 62.2809 64.108 62.2809 64.1332V72.2186C62.2809 72.2927 62.2573 72.3551 62.2118 72.404C62.1663 72.4562 62.1039 72.4815 62.0315 72.4815H61.3119C61.2378 72.4815 61.1788 72.4714 61.1316 72.4545C61.0861 72.436 61.0625 72.3888 61.0625 72.3163V62.5829C61.0625 62.4734 61.1029 62.3807 61.1805 62.3065C61.2597 62.2324 61.3524 62.1953 61.4653 62.1953H62.2253C62.4191 62.1953 62.5471 62.2155 62.6128 62.2577C62.6769 62.2998 62.7375 62.3706 62.7932 62.4734L67.0431 70.557L67.0718 70.5992C67.0802 70.5992 67.0852 70.584 67.0852 70.557V62.4582C67.0852 62.3857 67.1071 62.3234 67.1543 62.2728C67.1998 62.2206 67.2588 62.1953 67.333 62.1953H68.0677C68.1401 62.1953 68.2008 62.2206 68.2463 62.2728C68.2918 62.3234 68.3154 62.3857 68.3154 62.4582V72.0804Z" fill="#0C6635"/>
<path fill-rule="evenodd" clip-rule="evenodd" d="M79.3954 69.3944C79.3954 69.1636 79.3617 68.9428 79.2977 68.7305C79.2336 68.5182 79.1207 68.3311 78.959 68.1677C78.7972 68.0092 78.5832 67.8795 78.3135 67.7818C78.0473 67.684 77.7103 67.6368 77.3058 67.6368H75.1724V71.4436C75.4033 71.4537 75.6409 71.4655 75.8852 71.4773C76.1313 71.4925 76.3722 71.4992 76.6132 71.4992C77.0379 71.4992 77.4221 71.4706 77.7675 71.4149C78.1147 71.361 78.4079 71.2633 78.6472 71.1251C78.8865 70.9869 79.0719 70.7982 79.2016 70.5572C79.3297 70.3179 79.3954 70.0078 79.3954 69.6304V69.3944ZM79.3398 64.7569C79.3398 64.4249 79.2724 64.1553 79.1393 63.948C79.0061 63.7408 78.8157 63.5756 78.5714 63.456C78.327 63.3363 78.0321 63.2554 77.6917 63.2133C77.3513 63.1729 76.9688 63.151 76.5441 63.151C76.3032 63.151 76.0622 63.156 75.8229 63.1661C75.5819 63.1745 75.3662 63.183 75.1724 63.1931V66.6257H77.3058C77.7018 66.6257 78.0304 66.5819 78.295 66.4943C78.5579 66.4067 78.7668 66.287 78.9252 66.1337C79.0803 65.982 79.1898 65.8068 79.2488 65.6079C79.3095 65.4107 79.3398 65.2001 79.3398 64.9793V64.7569ZM80.6542 69.6304C80.6542 70.2117 80.5464 70.692 80.3307 71.0695C80.1133 71.4486 79.8167 71.7469 79.4426 71.9694C79.0702 72.1901 78.6388 72.3452 78.1501 72.4328C77.6597 72.5204 77.1474 72.5642 76.6132 72.5642C76.1515 72.5642 75.7268 72.5558 75.3392 72.5373C74.9517 72.5187 74.6231 72.4867 74.3568 72.4412C74.1984 72.4227 74.0838 72.3755 74.0097 72.303C73.9372 72.2289 73.8984 72.1025 73.8984 71.9272V62.7078C73.8984 62.3943 74.0467 62.2241 74.3416 62.1972C74.5725 62.1685 74.8842 62.1432 75.2769 62.1213C75.6695 62.0977 76.0908 62.0859 76.5441 62.0859C77.0969 62.0859 77.6176 62.1281 78.1079 62.209C78.595 62.2932 79.0264 62.4364 79.3954 62.6387C79.7645 62.8426 80.0577 63.1139 80.2734 63.456C80.4891 63.7981 80.6003 64.2311 80.6003 64.7569V64.9793C80.6003 65.4967 80.4705 65.9399 80.211 66.314C79.9532 66.6881 79.5892 66.9678 79.119 67.1515C79.5976 67.32 79.9751 67.6014 80.2464 67.9958C80.5194 68.3935 80.6542 68.8603 80.6542 69.3944V69.6304Z" fill="#0C6635"/>
<path fill-rule="evenodd" clip-rule="evenodd" d="M88.3945 66.4319C88.3945 65.8489 88.3356 65.3568 88.221 64.9507C88.1047 64.5446 87.9412 64.2126 87.7289 63.9531C87.5166 63.6953 87.2587 63.5099 86.9554 63.3919C86.6504 63.279 86.3083 63.22 85.9292 63.22C85.5517 63.22 85.2096 63.279 84.9063 63.3919C84.6013 63.5099 84.3401 63.6953 84.1227 63.9531C83.907 64.2126 83.7401 64.5446 83.6255 64.9507C83.511 65.3568 83.452 65.8489 83.452 66.4319V68.2182C83.452 68.7996 83.511 69.2933 83.6255 69.6978C83.7401 70.1056 83.9036 70.4376 84.1159 70.6954C84.3283 70.9549 84.5895 71.142 84.8978 71.2565C85.2079 71.3728 85.5517 71.4301 85.9292 71.4301C86.3083 71.4301 86.6504 71.3728 86.9554 71.2565C87.2587 71.142 87.5166 70.9549 87.7289 70.6954C87.9412 70.4376 88.1047 70.1056 88.221 69.6978C88.3356 69.2933 88.3945 68.7996 88.3945 68.2182V66.4319ZM89.6668 68.2182C89.6668 68.985 89.5741 69.6405 89.3905 70.1898C89.2051 70.7392 88.9473 71.1891 88.6153 71.5396C88.2833 71.8902 87.889 72.1497 87.4323 72.3148C86.9739 72.4816 86.4735 72.5642 85.9292 72.5642C85.3848 72.5642 84.8844 72.4816 84.4277 72.3148C83.971 72.1497 83.5767 71.8902 83.243 71.5396C82.911 71.1891 82.6515 70.7392 82.4611 70.1898C82.2724 69.6405 82.1797 68.985 82.1797 68.2182V66.4319C82.1797 65.6669 82.2724 65.008 82.4611 64.4586C82.6515 63.911 82.911 63.4593 83.243 63.1088C83.5767 62.7583 83.971 62.5005 84.4277 62.3337C84.8844 62.1685 85.3848 62.0859 85.9292 62.0859C86.4735 62.0859 86.9739 62.1685 87.4323 62.3337C87.889 62.5005 88.2833 62.7583 88.6153 63.1088C88.9473 63.4593 89.2051 63.911 89.3905 64.4586C89.5741 65.008 89.6668 65.6669 89.6668 66.4319V68.2182Z" fill="#0C6635"/>
<path fill-rule="evenodd" clip-rule="evenodd" d="M96.9757 65.0619C96.9757 64.3693 96.7549 63.8907 96.31 63.6228C95.8685 63.3549 95.213 63.22 94.3451 63.22H93.9727C93.8345 63.22 93.693 63.2234 93.5498 63.2285C93.4065 63.2318 93.2717 63.2369 93.1419 63.242C93.0122 63.247 92.906 63.2538 92.8235 63.2622V67.0571C93.1285 67.0639 93.4183 67.0706 93.6964 67.0757C93.9727 67.0807 94.1901 67.0824 94.3451 67.0824C94.7698 67.0824 95.1473 67.0538 95.4725 66.9931C95.8028 66.9324 96.0775 66.8296 96.2982 66.6814C96.519 66.5347 96.6875 66.3376 96.8021 66.0932C96.9184 65.8506 96.9757 65.5371 96.9757 65.1597V65.0619ZM98.6103 72.2879C98.6103 72.4075 98.5496 72.4699 98.4283 72.4699H97.5436C97.4593 72.4699 97.3936 72.4614 97.343 72.4479C97.2908 72.4328 97.2386 72.3822 97.1846 72.2879L94.7058 68.1626H94.3451C94.116 68.1626 93.8969 68.1609 93.6879 68.1559C93.4807 68.1508 93.1925 68.139 92.8235 68.1205V72.1901C92.8235 72.2643 92.7999 72.33 92.7527 72.3856C92.7089 72.4412 92.6482 72.4699 92.5741 72.4699H91.8258C91.7517 72.4699 91.6927 72.4412 91.6472 72.3856C91.6017 72.33 91.5781 72.2643 91.5781 72.1901V62.5005C91.5781 62.3994 91.6017 62.3286 91.6472 62.2882C91.6927 62.2443 91.7803 62.2157 91.9101 62.1972C92.0567 62.1786 92.2303 62.1618 92.4291 62.1483C92.628 62.1348 92.8352 62.123 93.0526 62.1129C93.2683 62.1045 93.4874 62.0977 93.7098 62.0927C93.9306 62.0876 94.1412 62.0859 94.3451 62.0859C94.8911 62.0859 95.4001 62.1382 95.8769 62.2376C96.3505 62.3404 96.7617 62.5055 97.1071 62.7364C97.4543 62.9673 97.7256 63.2723 97.9227 63.6498C98.1233 64.0289 98.2227 64.4991 98.2227 65.0619V65.1597C98.2227 65.5472 98.1688 65.8944 98.0643 66.2045C97.9564 66.5128 97.8064 66.7825 97.6127 67.0133C97.4189 67.2442 97.188 67.438 96.9217 67.5947C96.6538 67.7531 96.3623 67.8728 96.0488 67.9553L98.5681 72.1632C98.5968 72.2103 98.6103 72.2525 98.6103 72.2879Z" fill="#0C6635"/>
<path fill-rule="evenodd" clip-rule="evenodd" d="M105.971 66.3915C105.971 65.7629 105.895 65.2422 105.742 64.826C105.59 64.4114 105.383 64.0812 105.12 63.8368C104.857 63.5925 104.547 63.4189 104.192 63.3178C103.836 63.2167 103.452 63.1661 103.037 63.1661C102.712 63.1661 102.434 63.1678 102.2 63.1729C101.964 63.1779 101.73 63.1897 101.501 63.2066V71.4571C101.721 71.4773 101.95 71.484 102.193 71.484H103.037C103.452 71.484 103.836 71.4352 104.192 71.3341C104.547 71.2313 104.857 71.0577 105.12 70.8066C105.383 70.5589 105.59 70.2269 105.742 69.8174C105.895 69.4062 105.971 68.8872 105.971 68.2587V66.3915ZM107.232 68.2587C107.232 68.9984 107.131 69.6405 106.933 70.1848C106.735 70.7291 106.453 71.1757 106.089 71.5262C105.725 71.8784 105.284 72.1379 104.766 72.3098C104.251 72.48 103.674 72.5642 103.037 72.5642C102.769 72.5642 102.507 72.5609 102.254 72.5507C102.001 72.5406 101.76 72.5322 101.534 72.517C101.307 72.5036 101.108 72.4884 100.933 72.4749C100.757 72.4614 100.618 72.4446 100.518 72.426C100.323 72.3991 100.227 72.2828 100.227 72.0806V62.5696C100.227 62.3674 100.323 62.2511 100.518 62.2241C100.618 62.2073 100.757 62.1904 100.933 62.1753C101.108 62.1618 101.307 62.1483 101.534 62.1348C101.76 62.1213 102.001 62.1095 102.254 62.0994C102.507 62.091 102.769 62.0859 103.037 62.0859C103.674 62.0859 104.251 62.1685 104.766 62.3353C105.284 62.5005 105.725 62.7634 106.089 63.1173C106.453 63.4728 106.735 63.9194 106.933 64.4603C107.131 64.9996 107.232 65.645 107.232 66.3915V68.2587Z" fill="#0C6635"/>
<path fill-rule="evenodd" clip-rule="evenodd" d="M114.888 72.317C114.888 72.3625 114.877 72.4046 114.853 72.44C114.831 72.4787 114.796 72.5006 114.75 72.5091C114.62 72.5276 114.445 72.5411 114.223 72.5461C114.004 72.5495 113.764 72.5563 113.512 72.5647C113.257 72.5748 113.001 72.5782 112.743 72.5782H112.049C111.072 72.5782 110.337 72.381 109.843 71.985C109.349 71.5873 109.102 70.9284 109.102 70.0049V64.6748C109.102 63.7513 109.349 63.0907 109.843 62.6947C110.337 62.2987 111.072 62.1016 112.049 62.1016H112.73L113.49 62.1268C113.739 62.1268 113.975 62.1369 114.196 62.1555L114.75 62.1825C114.796 62.1926 114.831 62.2162 114.853 62.2515C114.877 62.2886 114.888 62.3307 114.888 62.3779V63.0705C114.888 63.1801 114.838 63.234 114.737 63.234H112.064C111.695 63.234 111.4 63.2609 111.179 63.3115C110.957 63.3637 110.785 63.4446 110.665 63.5609C110.546 63.6755 110.465 63.8272 110.424 64.0092C110.382 64.1962 110.36 64.417 110.36 64.6748V66.5992H114.612C114.686 66.5992 114.75 66.6262 114.806 66.6818C114.86 66.7374 114.888 66.8031 114.888 66.8756V67.4014C114.888 67.4772 114.86 67.5396 114.806 67.5952C114.75 67.6508 114.686 67.6794 114.612 67.6794H110.36V70.0049C110.36 70.2712 110.382 70.497 110.424 70.6756C110.465 70.8559 110.546 71.0042 110.665 71.1188C110.785 71.2334 110.957 71.3177 111.179 71.3682C111.4 71.4188 111.695 71.4441 112.064 71.4441H114.737C114.838 71.4441 114.888 71.4997 114.888 71.6109V72.317Z" fill="#0C6635"/>
<path fill-rule="evenodd" clip-rule="evenodd" d="M122.126 65.0619C122.126 64.3693 121.903 63.8907 121.46 63.6228C121.019 63.3549 120.363 63.22 119.495 63.22H119.121C118.983 63.22 118.843 63.2234 118.7 63.2285C118.557 63.2318 118.42 63.2369 118.29 63.242C118.161 63.247 118.056 63.2538 117.972 63.2622V67.0571C118.277 67.0639 118.568 67.0706 118.845 67.0757C119.121 67.0807 119.339 67.0824 119.495 67.0824C119.918 67.0824 120.296 67.0538 120.623 66.9931C120.951 66.9324 121.226 66.8296 121.447 66.6814C121.669 66.5347 121.836 66.3376 121.952 66.0932C122.068 65.8506 122.126 65.5371 122.126 65.1597V65.0619ZM123.76 72.2879C123.76 72.4075 123.7 72.4699 123.578 72.4699H122.694C122.609 72.4699 122.542 72.4614 122.493 72.4479C122.441 72.4328 122.389 72.3822 122.333 72.2879L119.854 68.1626H119.495C119.264 68.1626 119.045 68.1609 118.838 68.1559C118.631 68.1508 118.341 68.139 117.972 68.1205V72.1901C117.972 72.2643 117.948 72.33 117.903 72.3856C117.857 72.4412 117.797 72.4699 117.724 72.4699H116.976C116.902 72.4699 116.841 72.4412 116.796 72.3856C116.75 72.33 116.727 72.2643 116.727 72.1901V62.5005C116.727 62.3994 116.75 62.3286 116.796 62.2882C116.841 62.2443 116.929 62.2157 117.059 62.1972C117.207 62.1786 117.38 62.1618 117.578 62.1483C117.776 62.1348 117.984 62.123 118.201 62.1129C118.418 62.1045 118.638 62.0977 118.86 62.0927C119.079 62.0876 119.291 62.0859 119.495 62.0859C120.041 62.0859 120.548 62.1382 121.025 62.2376C121.501 62.3404 121.91 62.5055 122.257 62.7364C122.603 62.9673 122.874 63.2723 123.073 63.6498C123.272 64.0289 123.371 64.4991 123.371 65.0619V65.1597C123.371 65.5472 123.317 65.8944 123.213 66.2045C123.107 66.5128 122.955 66.7825 122.763 67.0133C122.569 67.2442 122.338 67.438 122.07 67.5947C121.804 67.7531 121.512 67.8728 121.197 67.9553L123.717 72.1632C123.745 72.2103 123.76 72.2525 123.76 72.2879Z" fill="#0C6635"/>
<path fill-rule="evenodd" clip-rule="evenodd" d="M135.846 68.7455C135.846 70.0633 135.532 71.0323 134.91 71.6524C134.287 72.2708 133.419 72.5775 132.3 72.5775C131.176 72.5775 130.303 72.2708 129.685 71.6524C129.068 71.0323 128.758 70.0633 128.758 68.7455V62.4599C128.758 62.3874 128.783 62.3234 128.834 62.2728C128.884 62.2223 128.947 62.1953 129.021 62.1953H129.769C129.841 62.1953 129.905 62.2223 129.956 62.2728C130.005 62.3234 130.03 62.3874 130.03 62.4599V68.7455C130.03 69.1887 130.067 69.5813 130.141 69.9268C130.215 70.2739 130.342 70.5621 130.522 70.793C130.702 71.0255 130.935 71.1991 131.222 71.3187C131.508 71.4401 131.869 71.499 132.3 71.499C132.725 71.499 133.084 71.4401 133.373 71.3187C133.665 71.1991 133.901 71.0255 134.08 70.793C134.262 70.5621 134.388 70.2773 134.462 69.9352C134.535 69.5931 134.572 69.1971 134.572 68.7455V62.4599C134.572 62.3874 134.597 62.3234 134.647 62.2728C134.698 62.2223 134.76 62.1953 134.834 62.1953H135.583C135.657 62.1953 135.719 62.2223 135.768 62.2728C135.819 62.3234 135.846 62.3874 135.846 62.4599V68.7455Z" fill="#0C6635"/>
<path fill-rule="evenodd" clip-rule="evenodd" d="M145.216 72.0804C145.216 72.19 145.177 72.2843 145.098 72.3635C145.018 72.4427 144.924 72.4815 144.814 72.4815H143.955C143.734 72.4815 143.586 72.4073 143.512 72.2591L139.235 64.1332C139.216 64.108 139.203 64.0928 139.193 64.0928C139.184 64.0928 139.179 64.108 139.179 64.1332V72.2186C139.179 72.2927 139.156 72.3551 139.11 72.404C139.065 72.4562 139.004 72.4815 138.932 72.4815H138.21C138.136 72.4815 138.077 72.4714 138.03 72.4545C137.985 72.436 137.961 72.3888 137.961 72.3163V62.5829C137.961 62.4734 138.001 62.3807 138.079 62.3065C138.158 62.2324 138.252 62.1953 138.364 62.1953H139.124C139.317 62.1953 139.447 62.2155 139.511 62.2577C139.575 62.2998 139.636 62.3706 139.692 62.4734L143.942 70.557L143.97 70.5992C143.979 70.5992 143.984 70.584 143.984 70.557V62.4582C143.984 62.3857 144.006 62.3234 144.053 62.2728C144.098 62.2206 144.159 62.1953 144.233 62.1953H144.968C145.04 62.1953 145.099 62.2206 145.146 62.2728C145.192 62.3234 145.216 62.3857 145.216 62.4582V72.0804Z" fill="#0C6635"/>
<path fill-rule="evenodd" clip-rule="evenodd" d="M148.776 72.2034C148.776 72.2776 148.751 72.3433 148.707 72.3972C148.66 72.4528 148.601 72.4815 148.527 72.4815H147.763C147.689 72.4815 147.63 72.4528 147.585 72.3972C147.539 72.3433 147.516 72.2776 147.516 72.2034V62.4582C147.516 62.3857 147.539 62.3234 147.585 62.2711C147.63 62.2206 147.689 62.1953 147.763 62.1953H148.527C148.601 62.1953 148.66 62.2206 148.707 62.2711C148.751 62.3234 148.776 62.3857 148.776 62.4582V72.2034Z" fill="#0C6635"/>
<path fill-rule="evenodd" clip-rule="evenodd" d="M158.429 62.4329C158.429 62.4683 158.424 62.497 158.414 62.5155L155.866 71.526C155.802 71.7485 155.718 71.9271 155.612 72.0602C155.506 72.1933 155.389 72.2995 155.265 72.377C155.142 72.4562 155.007 72.5085 154.864 72.5371C154.72 72.5657 154.586 72.5792 154.456 72.5792C154.326 72.5792 154.193 72.5657 154.053 72.5371C153.915 72.5085 153.782 72.4562 153.652 72.377C153.524 72.2995 153.408 72.1933 153.3 72.0602C153.195 71.9271 153.108 71.7485 153.045 71.526L150.482 62.5155C150.474 62.497 150.469 62.4683 150.469 62.4329C150.469 62.3571 150.492 62.3015 150.538 62.2577C150.585 62.2172 150.644 62.1953 150.718 62.1953H151.52C151.576 62.1953 151.626 62.2172 151.674 62.2577C151.719 62.3015 151.751 62.3487 151.77 62.4043L154.179 71.2227C154.235 71.4165 154.326 71.5142 154.456 71.5142C154.575 71.5142 154.663 71.4165 154.719 71.2227L157.14 62.4043C157.159 62.3487 157.191 62.3015 157.231 62.2577C157.272 62.2172 157.321 62.1953 157.376 62.1953H158.193C158.35 62.1953 158.429 62.2745 158.429 62.4329Z" fill="#0C6635"/>
<path fill-rule="evenodd" clip-rule="evenodd" d="M165.404 72.317C165.404 72.3625 165.392 72.4046 165.369 72.44C165.347 72.4787 165.311 72.5006 165.266 72.5091C165.138 72.5276 164.961 72.5411 164.738 72.5461C164.519 72.5495 164.282 72.5563 164.027 72.5647C163.773 72.5748 163.517 72.5782 163.259 72.5782H162.566C161.587 72.5782 160.852 72.381 160.359 71.985C159.865 71.5873 159.617 70.9284 159.617 70.0049V64.6748C159.617 63.7513 159.865 63.0907 160.359 62.6947C160.852 62.2987 161.587 62.1016 162.566 62.1016H163.245L164.007 62.1268C164.255 62.1268 164.491 62.1369 164.713 62.1555L165.266 62.1825C165.311 62.1926 165.347 62.2162 165.369 62.2515C165.392 62.2886 165.404 62.3307 165.404 62.3779V63.0705C165.404 63.1801 165.353 63.234 165.252 63.234H162.58C162.211 63.234 161.916 63.2609 161.695 63.3115C161.473 63.3637 161.301 63.4446 161.181 63.5609C161.063 63.6755 160.982 63.8272 160.94 64.0092C160.898 64.1962 160.878 64.417 160.878 64.6748V66.5992H165.128C165.202 66.5992 165.266 66.6262 165.321 66.6818C165.375 66.7374 165.404 66.8031 165.404 66.8756V67.4014C165.404 67.4772 165.375 67.5396 165.321 67.5952C165.266 67.6508 165.202 67.6794 165.128 67.6794H160.878V70.0049C160.878 70.2712 160.898 70.497 160.94 70.6756C160.982 70.8559 161.063 71.0042 161.181 71.1188C161.301 71.2334 161.473 71.3177 161.695 71.3682C161.916 71.4188 162.211 71.4441 162.58 71.4441H165.252C165.353 71.4441 165.404 71.4997 165.404 71.6109V72.317Z" fill="#0C6635"/>
<path fill-rule="evenodd" clip-rule="evenodd" d="M172.641 65.0619C172.641 64.3693 172.419 63.8907 171.976 63.6228C171.534 63.3549 170.879 63.22 170.009 63.22H169.637C169.499 63.22 169.359 63.2234 169.215 63.2285C169.072 63.2318 168.936 63.2369 168.806 63.242C168.676 63.247 168.572 63.2538 168.488 63.2622V67.0571C168.793 67.0639 169.084 67.0706 169.36 67.0757C169.637 67.0807 169.854 67.0824 170.009 67.0824C170.434 67.0824 170.811 67.0538 171.138 66.9931C171.467 66.9324 171.742 66.8296 171.962 66.6814C172.185 66.5347 172.352 66.3376 172.466 66.0932C172.584 65.8506 172.641 65.5371 172.641 65.1597V65.0619ZM174.274 72.2879C174.274 72.4075 174.215 72.4699 174.094 72.4699H173.209C173.125 72.4699 173.058 72.4614 173.009 72.4479C172.957 72.4328 172.904 72.3822 172.849 72.2879L170.37 68.1626H170.009C169.78 68.1626 169.561 68.1609 169.354 68.1559C169.146 68.1508 168.857 68.139 168.488 68.1205V72.1901C168.488 72.2643 168.464 72.33 168.418 72.3856C168.373 72.4412 168.312 72.4699 168.24 72.4699H167.49C167.416 72.4699 167.357 72.4412 167.311 72.3856C167.266 72.33 167.242 72.2643 167.242 72.1901V62.5005C167.242 62.3994 167.266 62.3286 167.311 62.2882C167.357 62.2443 167.444 62.2157 167.574 62.1972C167.722 62.1786 167.896 62.1618 168.093 62.1483C168.292 62.1348 168.499 62.123 168.717 62.1129C168.934 62.1045 169.153 62.0977 169.374 62.0927C169.595 62.0876 169.807 62.0859 170.009 62.0859C170.555 62.0859 171.064 62.1382 171.541 62.2376C172.016 62.3404 172.426 62.5055 172.773 62.7364C173.118 62.9673 173.39 63.2723 173.588 63.6498C173.787 64.0289 173.887 64.4991 173.887 65.0619V65.1597C173.887 65.5472 173.833 65.8944 173.728 66.2045C173.622 66.5128 173.471 66.7825 173.278 67.0133C173.085 67.2442 172.854 67.438 172.586 67.5947C172.318 67.7531 172.028 67.8728 171.713 67.9553L174.232 72.1632C174.261 72.2103 174.274 72.2525 174.274 72.2879Z" fill="#0C6635"/>
<path fill-rule="evenodd" clip-rule="evenodd" d="M181.738 69.7955C181.738 70.1275 181.687 70.4612 181.584 70.7931C181.483 71.1251 181.306 71.4234 181.052 71.6846C180.797 71.9475 180.449 72.1598 180.007 72.3216C179.564 72.4833 179.001 72.5642 178.319 72.5642C177.83 72.5642 177.4 72.544 177.031 72.5019C176.66 72.4597 176.323 72.4176 176.018 72.3704C175.899 72.3519 175.826 72.3249 175.799 72.2879C175.771 72.2508 175.757 72.1952 175.757 72.121V71.5683C175.757 71.4941 175.781 71.4385 175.826 71.4015C175.873 71.3644 175.927 71.3459 175.993 71.3459H176.034C176.19 71.3644 176.367 71.3779 176.568 71.3863C176.765 71.3964 176.965 71.4065 177.169 71.4149L177.778 71.4301H178.319C178.733 71.4301 179.077 71.3897 179.35 71.3105C179.621 71.2346 179.837 71.1217 179.994 70.9785C180.15 70.8369 180.26 70.6634 180.324 70.4612C180.39 70.2556 180.423 70.0365 180.423 69.7955C180.423 69.6203 180.395 69.4619 180.339 69.3186C180.284 69.1754 180.191 69.0338 180.063 68.8956C179.933 68.7575 179.761 68.6125 179.549 68.4592C179.336 68.3075 179.075 68.1356 178.76 67.9402L177.419 67.1245C176.782 66.737 176.303 66.346 175.986 65.9551C175.666 65.5607 175.508 65.0889 175.508 64.5362C175.508 63.6953 175.794 63.0768 176.366 62.6791C176.937 62.2831 177.756 62.0859 178.817 62.0859C179.02 62.0859 179.234 62.091 179.459 62.0994C179.685 62.1078 179.908 62.1196 180.125 62.1331C180.341 62.1483 180.546 62.1668 180.74 62.1887C180.934 62.2123 181.096 62.2325 181.224 62.2494C181.382 62.2797 181.461 62.3572 181.461 62.487V63.0819C181.461 63.2302 181.382 63.3026 181.224 63.3026H181.199C180.894 63.2858 180.521 63.2672 180.083 63.247C179.645 63.2302 179.224 63.22 178.817 63.22C178.096 63.22 177.577 63.311 177.259 63.4981C176.94 63.6818 176.782 64.0272 176.782 64.5362C176.782 64.858 176.901 65.1394 177.141 65.3804C177.38 65.618 177.764 65.8978 178.29 66.2095L179.564 66.9712C179.96 67.2122 180.299 67.443 180.575 67.6638C180.851 67.8846 181.077 68.107 181.252 68.3278C181.428 68.5502 181.552 68.7794 181.627 69.0203C181.701 69.2613 181.738 69.5192 181.738 69.7955Z" fill="#0C6635"/>
<path fill-rule="evenodd" clip-rule="evenodd" d="M184.901 72.2034C184.901 72.2776 184.878 72.3433 184.832 72.3972C184.787 72.4528 184.726 72.4815 184.652 72.4815H183.89C183.816 72.4815 183.755 72.4528 183.711 72.3972C183.664 72.3433 183.641 72.2776 183.641 72.2034V62.4582C183.641 62.3857 183.664 62.3234 183.711 62.2711C183.755 62.2206 183.816 62.1953 183.89 62.1953H184.652C184.726 62.1953 184.787 62.2206 184.832 62.2711C184.878 62.3234 184.901 62.3857 184.901 62.4582V72.2034Z" fill="#0C6635"/>
<path fill-rule="evenodd" clip-rule="evenodd" d="M193.807 63.0547C193.807 63.203 193.719 63.2755 193.545 63.2755H190.844V72.2051C190.844 72.2793 190.822 72.345 190.775 72.3989C190.73 72.4545 190.671 72.4832 190.596 72.4832H189.835C189.762 72.4832 189.7 72.4545 189.654 72.3989C189.609 72.345 189.585 72.2793 189.585 72.2051V63.2755H186.887C186.813 63.2755 186.749 63.257 186.692 63.2216C186.636 63.1845 186.609 63.1289 186.609 63.0547V62.4464C186.609 62.3723 186.636 62.3133 186.692 62.2644C186.749 62.2206 186.813 62.1953 186.887 62.1953H193.545C193.719 62.1953 193.807 62.2796 193.807 62.4464V63.0547Z" fill="#0C6635"/>
<path fill-rule="evenodd" clip-rule="evenodd" d="M201.89 62.3891C201.89 62.4346 201.876 62.4868 201.849 62.5424L199.703 67.3586C199.574 67.635 199.45 67.8439 199.328 67.9821C199.209 68.1203 199.086 68.2181 198.956 68.272V72.2034C198.956 72.2776 198.932 72.3433 198.887 72.3972C198.84 72.4545 198.781 72.4815 198.705 72.4815H197.945C197.871 72.4815 197.812 72.4545 197.766 72.3972C197.717 72.3433 197.697 72.2776 197.697 72.2034V68.272C197.567 68.2265 197.441 68.1321 197.321 67.9889C197.202 67.8456 197.079 67.635 196.947 67.3586L194.817 62.5424C194.789 62.4868 194.773 62.4346 194.773 62.3891C194.773 62.261 194.853 62.1953 195.011 62.1953H195.855C195.901 62.1953 195.95 62.2155 196 62.2577C196.051 62.2998 196.086 62.3436 196.103 62.3891L198.014 66.875C198.088 67.0317 198.147 67.1311 198.194 67.1733C198.24 67.2137 198.287 67.2339 198.332 67.2339C198.38 67.2339 198.423 67.2137 198.472 67.1733C198.518 67.1311 198.577 67.0317 198.651 66.875L200.575 62.3891C200.592 62.3436 200.624 62.2998 200.665 62.2577C200.707 62.2155 200.756 62.1953 200.81 62.1953H201.656C201.812 62.1953 201.89 62.261 201.89 62.3891Z" fill="#0C6635"/>
<mask id="mask2_1164_11312" style="mask-type:luminance" maskUnits="userSpaceOnUse" x="0" y="0" width="304" height="79">
<path d="M0.34375 79H303.194V0H0.34375V79Z" fill="white"/>
</mask>
<g mask="url(#mask2_1164_11312)">
<path fill-rule="evenodd" clip-rule="evenodd" d="M0.34375 78.4751H201.607V76.4766H0.34375V78.4751Z" fill="#0C6635"/>
</g>
</svg>
