<svg width="34" height="34" viewBox="0 0 34 34" fill="none" xmlns="http://www.w3.org/2000/svg">
<path d="M5.03066 10.1274V25.4504M5.03066 25.4504C5.5646 25.4178 6.22285 25.4178 7.06937 25.4178H26.7769C27.6235 25.4178 28.2816 25.4178 28.8156 25.4504M5.03066 25.4504C4.36433 25.491 3.89158 25.5826 3.48807 25.7881C2.84872 26.1138 2.32891 26.6337 2.00316 27.273C1.63281 27.9998 1.63281 28.9514 1.63281 30.8543V32.2135H32.2135V30.8543C32.2135 28.9514 32.2135 27.9998 31.8431 27.273C31.5174 26.6337 30.9975 26.1138 30.3582 25.7881C29.9547 25.5826 29.4819 25.491 28.8156 25.4504M11.8264 10.1274V25.4178M22.0199 10.1274V25.4178M28.8156 10.1274V25.4504M1.63281 5.88012V10.1274H32.2135V5.88012L16.9231 1.63281L1.63281 5.88012Z" stroke="#0C6635" stroke-width="3" stroke-linecap="round" stroke-linejoin="round"/>
</svg>
