<svg width="26" height="26" viewBox="0 0 26 26" fill="none" xmlns="http://www.w3.org/2000/svg">
<path d="M13.3539 1.55492C11.5297 1.54148 9.67202 2.25658 8.46948 3.67489C7.40281 4.81934 7.00009 6.4415 7.05376 7.98191C7.04919 8.77305 7.05864 9.56404 7.06139 10.355C6.31403 10.1669 5.55585 9.64039 4.76443 9.90112C4.09011 10.104 3.80877 10.9966 4.21607 11.5689C4.65463 12.1501 5.33626 12.4818 5.90566 12.915C6.18579 13.1468 6.56335 13.3124 6.77181 13.6103C6.77166 14.3244 6.40202 14.9854 6.05175 15.5864C5.19826 16.9468 3.86473 17.9867 2.43697 18.7052C2.07252 18.8652 1.73704 19.3457 2.05986 19.7097C2.64878 20.2695 3.48214 20.4481 4.22446 20.7121C4.53661 20.811 4.9988 20.9192 4.96953 21.3433C5.02061 21.795 5.30577 22.2808 5.807 22.2826C7.00756 22.4233 8.29092 22.3633 9.36689 23.0154C10.4217 23.6345 11.5074 24.3249 12.7606 24.4001C14.0091 24.5187 15.2954 24.2629 16.3657 23.588C17.1633 23.1422 17.9406 22.5869 18.8751 22.4967C19.6612 22.3103 20.5071 22.4733 21.2669 22.1765C21.7538 21.9652 21.6881 21.366 21.8927 20.9697C22.2788 20.6997 22.7726 20.6687 23.2026 20.4903C23.7649 20.2631 24.4736 20.0886 24.7684 19.4992C24.9435 19.0296 24.4158 18.7731 24.0894 18.5904C22.354 17.6826 20.7908 16.2844 20.1062 14.388C20.0305 14.0888 19.7586 13.6409 20.119 13.4213C20.8743 12.7759 21.8593 12.4051 22.4847 11.6108C22.9579 11.0105 22.6282 9.98025 21.8532 9.86094C21.1018 9.74039 20.4008 10.1535 19.6952 10.3442C19.6336 9.0259 19.7718 7.681 19.5769 6.36516C19.2065 4.23112 17.5161 2.47713 15.4881 1.86402C14.7987 1.6475 14.0752 1.5492 13.3539 1.55492Z" stroke="white" stroke-width="2" stroke-linejoin="round"/>
</svg>
