<svg width="32" height="33" viewBox="0 0 32 33" fill="none" xmlns="http://www.w3.org/2000/svg">
<path d="M15.9847 1.52375C13.7516 1.50611 11.4776 2.44402 10.0055 4.30423C8.69981 5.80525 8.20682 7.93282 8.27252 9.95316C8.26692 10.9908 8.2785 12.0282 8.28186 13.0657C7.367 12.819 6.43889 12.1284 5.47008 12.4703C4.64464 12.7365 4.30024 13.9071 4.79883 14.6577C5.33568 15.4201 6.17009 15.8551 6.8671 16.4232C7.21001 16.7273 7.6722 16.9444 7.92738 17.3352C7.92719 18.2717 7.47471 19.1387 7.04593 19.927C6.00115 21.7112 4.36875 23.0752 2.62098 24.0175C2.17484 24.2273 1.76417 24.8575 2.15935 25.3349C2.88026 26.0691 3.9004 26.3034 4.80909 26.6496C5.1912 26.7794 5.75699 26.9213 5.72115 27.4775C5.78369 28.07 6.13275 28.7071 6.74633 28.7095C8.21596 28.894 9.78696 28.8153 11.1041 29.6705C12.3953 30.4825 13.7243 31.388 15.2584 31.4867C16.7868 31.6422 18.3613 31.3067 19.6716 30.4215C20.6478 29.8369 21.5995 29.1086 22.7434 28.9902C23.7056 28.7458 24.7411 28.9596 25.6712 28.5702C26.2673 28.2932 26.1868 27.5073 26.4373 26.9875C26.91 26.6334 27.5144 26.5927 28.0408 26.3588C28.7291 26.0608 29.5967 25.8319 29.9575 25.0588C30.1718 24.443 29.5259 24.1065 29.1263 23.8669C27.002 22.6762 25.0885 20.8424 24.2503 18.3552C24.1577 17.9628 23.8249 17.3753 24.266 17.0873C25.1906 16.2408 26.3965 15.7545 27.162 14.7126C27.7412 13.9253 27.3376 12.5741 26.389 12.4176C25.4691 12.2595 24.611 12.8013 23.7473 13.0515C23.6719 11.3224 23.841 9.5585 23.6024 7.83268C23.149 5.03376 21.0798 2.73328 18.5973 1.92915C17.7534 1.64517 16.8676 1.51625 15.9847 1.52375Z" stroke="white" stroke-width="2.5" stroke-linejoin="round"/>
</svg>
