<svg width="1928" height="346" viewBox="0 0 1928 346" fill="none" xmlns="http://www.w3.org/2000/svg">
<path opacity="0.6" d="M1198.5 105.282C1453.7 162.482 1784.83 66.6156 1926 42.7822V345.081H1.5V69.5809C31.1666 64.9143 180.3 33.1822 329.5 10.7822C516 -17.2178 879.5 33.7822 1198.5 105.282Z" fill="white"/>
<path opacity="0.8" d="M1925 144.866V236.866V345.279H2V105.366L197 67.8657C267.4 45.8657 457 20.3657 543 10.3657C729.5 -27.1346 1132.5 44.7793 1370 103.779C1560 150.979 1719.5 191.779 1925 144.866Z" fill="#D9D9D9" fill-opacity="0.8"/>
<path opacity="0.8" d="M1925 190.266V240.766V345.766H2V133.266L174 97.766C524.5 44.766 585.5 62.266 633 59.266C671 56.866 821.833 76.9327 892.5 87.266L974.5 101.766L1106 127.266L1261.5 157.766L1485 190.266L1570 198.766C1668.5 210.781 1847.17 200.933 1925 190.266Z" fill="white"/>
<path opacity="0.4" d="M952.5 85.3891C1270.9 -29.8109 1730.17 37.3891 1922.5 85.3891V345H0V229.389C184.833 229.389 634.1 200.589 952.5 85.3891Z" fill="white"/>
</svg>
