<svg width="24" height="23" viewBox="0 0 24 23" fill="none" xmlns="http://www.w3.org/2000/svg">
<path d="M23.0696 12.912C23.0696 13.168 22.9736 13.36 22.7816 13.488C22.5896 13.616 22.3656 13.68 22.1096 13.68H14.3336V21.408C14.3336 21.664 14.2696 21.888 14.1416 22.08C14.0136 22.272 13.8216 22.368 13.5656 22.368H10.2056C9.94963 22.368 9.75763 22.272 9.62963 22.08C9.50163 21.888 9.43762 21.664 9.43762 21.408V13.68H1.70963C1.45363 13.68 1.22963 13.616 1.03763 13.488C0.845625 13.36 0.749625 13.168 0.749625 12.912V9.552C0.749625 9.296 0.845625 9.104 1.03763 8.976C1.22963 8.848 1.45363 8.784 1.70963 8.784H9.43762V1.008C9.43762 0.751998 9.50163 0.527998 9.62963 0.335999C9.75763 0.143999 9.94963 0.0479994 10.2056 0.0479994H13.5656C13.8216 0.0479994 14.0136 0.143999 14.1416 0.335999C14.2696 0.527998 14.3336 0.751998 14.3336 1.008V8.784H22.1096C22.3656 8.784 22.5896 8.848 22.7816 8.976C22.9736 9.104 23.0696 9.296 23.0696 9.552V12.912Z" fill="#D4B42F"/>
</svg>
